<svg width="180" height="175" viewBox="0 0 180 175" fill="none" xmlns="http://www.w3.org/2000/svg">
<path d="M3.98087 7.26507C6.06227 7.26507 7.74957 5.63892 7.74957 3.63295C7.74957 1.62698 6.06227 0.000823975 3.98087 0.000823975C1.89947 0.000823975 0.212158 1.62698 0.212158 3.63295C0.212158 5.63892 1.89947 7.26507 3.98087 7.26507Z" fill="#F7F7F7"/>
<path d="M23.058 7.26507C25.1394 7.26507 26.8267 5.63892 26.8267 3.63295C26.8267 1.62698 25.1394 0.000823975 23.058 0.000823975C20.9766 0.000823975 19.2893 1.62698 19.2893 3.63295C19.2893 5.63892 20.9766 7.26507 23.058 7.26507Z" fill="#F7F7F7"/>
<path d="M42.1351 7.26507C44.2165 7.26507 45.9038 5.63892 45.9038 3.63295C45.9038 1.62698 44.2165 0.000823975 42.1351 0.000823975C40.0537 0.000823975 38.3664 1.62698 38.3664 3.63295C38.3664 5.63892 40.0537 7.26507 42.1351 7.26507Z" fill="#F7F7F7"/>
<path d="M61.2123 7.26507C63.2937 7.26507 64.981 5.63892 64.981 3.63295C64.981 1.62698 63.2937 0.000823975 61.2123 0.000823975C59.1309 0.000823975 57.4436 1.62698 57.4436 3.63295C57.4436 5.63892 59.1309 7.26507 61.2123 7.26507Z" fill="#F7F7F7"/>
<path d="M80.2894 7.26507C82.3708 7.26507 84.0581 5.63892 84.0581 3.63295C84.0581 1.62698 82.3708 0.000823975 80.2894 0.000823975C78.208 0.000823975 76.5207 1.62698 76.5207 3.63295C76.5207 5.63892 78.208 7.26507 80.2894 7.26507Z" fill="#F7F7F7"/>
<path d="M99.3666 7.26507C101.448 7.26507 103.135 5.63892 103.135 3.63295C103.135 1.62698 101.448 0.000823975 99.3666 0.000823975C97.2851 0.000823975 95.5978 1.62698 95.5978 3.63295C95.5978 5.63892 97.2851 7.26507 99.3666 7.26507Z" fill="#F7F7F7"/>
<path d="M118.444 7.26507C120.525 7.26507 122.212 5.63892 122.212 3.63295C122.212 1.62698 120.525 0.000823975 118.444 0.000823975C116.362 0.000823975 114.675 1.62698 114.675 3.63295C114.675 5.63892 116.362 7.26507 118.444 7.26507Z" fill="#F7F7F7"/>
<path d="M137.521 7.26507C139.602 7.26507 141.29 5.63892 141.29 3.63295C141.29 1.62698 139.602 0.000823975 137.521 0.000823975C135.439 0.000823975 133.752 1.62698 133.752 3.63295C133.752 5.63892 135.439 7.26507 137.521 7.26507Z" fill="#F7F7F7"/>
<path d="M156.598 7.26507C158.679 7.26507 160.367 5.63892 160.367 3.63295C160.367 1.62698 158.679 0.000823975 156.598 0.000823975C154.517 0.000823975 152.829 1.62698 152.829 3.63295C152.829 5.63892 154.517 7.26507 156.598 7.26507Z" fill="#F7F7F7"/>
<path d="M175.675 7.26507C177.756 7.26507 179.444 5.63892 179.444 3.63295C179.444 1.62698 177.756 0.000823975 175.675 0.000823975C173.594 0.000823975 171.906 1.62698 171.906 3.63295C171.906 5.63892 173.594 7.26507 175.675 7.26507Z" fill="#F7F7F7"/>
<path d="M3.98087 25.8812C6.06227 25.8812 7.74957 24.255 7.74957 22.249C7.74957 20.2431 6.06227 18.6169 3.98087 18.6169C1.89947 18.6169 0.212158 20.2431 0.212158 22.249C0.212158 24.255 1.89947 25.8812 3.98087 25.8812Z" fill="#F7F7F7"/>
<path d="M23.058 25.8812C25.1394 25.8812 26.8267 24.255 26.8267 22.249C26.8267 20.2431 25.1394 18.6169 23.058 18.6169C20.9766 18.6169 19.2893 20.2431 19.2893 22.249C19.2893 24.255 20.9766 25.8812 23.058 25.8812Z" fill="#F7F7F7"/>
<path d="M42.1351 25.8812C44.2165 25.8812 45.9038 24.255 45.9038 22.249C45.9038 20.2431 44.2165 18.6169 42.1351 18.6169C40.0537 18.6169 38.3664 20.2431 38.3664 22.249C38.3664 24.255 40.0537 25.8812 42.1351 25.8812Z" fill="#F7F7F7"/>
<path d="M61.2123 25.8812C63.2937 25.8812 64.981 24.255 64.981 22.249C64.981 20.2431 63.2937 18.6169 61.2123 18.6169C59.1309 18.6169 57.4436 20.2431 57.4436 22.249C57.4436 24.255 59.1309 25.8812 61.2123 25.8812Z" fill="#F7F7F7"/>
<path d="M80.2894 25.8812C82.3708 25.8812 84.0581 24.255 84.0581 22.249C84.0581 20.2431 82.3708 18.6169 80.2894 18.6169C78.208 18.6169 76.5207 20.2431 76.5207 22.249C76.5207 24.255 78.208 25.8812 80.2894 25.8812Z" fill="#F7F7F7"/>
<path d="M99.3666 25.8812C101.448 25.8812 103.135 24.255 103.135 22.249C103.135 20.2431 101.448 18.6169 99.3666 18.6169C97.2851 18.6169 95.5978 20.2431 95.5978 22.249C95.5978 24.255 97.2851 25.8812 99.3666 25.8812Z" fill="#F7F7F7"/>
<path d="M118.444 25.8812C120.525 25.8812 122.212 24.255 122.212 22.249C122.212 20.2431 120.525 18.6169 118.444 18.6169C116.362 18.6169 114.675 20.2431 114.675 22.249C114.675 24.255 116.362 25.8812 118.444 25.8812Z" fill="#F7F7F7"/>
<path d="M137.521 25.8812C139.602 25.8812 141.29 24.255 141.29 22.249C141.29 20.2431 139.602 18.6169 137.521 18.6169C135.439 18.6169 133.752 20.2431 133.752 22.249C133.752 24.255 135.439 25.8812 137.521 25.8812Z" fill="#F7F7F7"/>
<path d="M156.598 25.8812C158.679 25.8812 160.367 24.255 160.367 22.249C160.367 20.2431 158.679 18.6169 156.598 18.6169C154.517 18.6169 152.829 20.2431 152.829 22.249C152.829 24.255 154.517 25.8812 156.598 25.8812Z" fill="#F7F7F7"/>
<path d="M175.675 25.8812C177.756 25.8812 179.444 24.255 179.444 22.249C179.444 20.2431 177.756 18.6169 175.675 18.6169C173.594 18.6169 171.906 20.2431 171.906 22.249C171.906 24.255 173.594 25.8812 175.675 25.8812Z" fill="#F7F7F7"/>
<path d="M3.98087 44.4977C6.06227 44.4977 7.74957 42.8715 7.74957 40.8656C7.74957 38.8596 6.06227 37.2334 3.98087 37.2334C1.89947 37.2334 0.212158 38.8596 0.212158 40.8656C0.212158 42.8715 1.89947 44.4977 3.98087 44.4977Z" fill="#F7F7F7"/>
<path d="M23.058 44.4977C25.1394 44.4977 26.8267 42.8715 26.8267 40.8656C26.8267 38.8596 25.1394 37.2334 23.058 37.2334C20.9766 37.2334 19.2893 38.8596 19.2893 40.8656C19.2893 42.8715 20.9766 44.4977 23.058 44.4977Z" fill="#F7F7F7"/>
<path d="M42.1351 44.4977C44.2165 44.4977 45.9038 42.8715 45.9038 40.8656C45.9038 38.8596 44.2165 37.2334 42.1351 37.2334C40.0537 37.2334 38.3664 38.8596 38.3664 40.8656C38.3664 42.8715 40.0537 44.4977 42.1351 44.4977Z" fill="#F7F7F7"/>
<path d="M61.2123 44.4977C63.2937 44.4977 64.981 42.8715 64.981 40.8656C64.981 38.8596 63.2937 37.2334 61.2123 37.2334C59.1309 37.2334 57.4436 38.8596 57.4436 40.8656C57.4436 42.8715 59.1309 44.4977 61.2123 44.4977Z" fill="#F7F7F7"/>
<path d="M80.2894 44.4977C82.3708 44.4977 84.0581 42.8715 84.0581 40.8656C84.0581 38.8596 82.3708 37.2334 80.2894 37.2334C78.208 37.2334 76.5207 38.8596 76.5207 40.8656C76.5207 42.8715 78.208 44.4977 80.2894 44.4977Z" fill="#F7F7F7"/>
<path d="M99.3666 44.4977C101.448 44.4977 103.135 42.8715 103.135 40.8656C103.135 38.8596 101.448 37.2334 99.3666 37.2334C97.2851 37.2334 95.5978 38.8596 95.5978 40.8656C95.5978 42.8715 97.2851 44.4977 99.3666 44.4977Z" fill="#F7F7F7"/>
<path d="M118.444 44.4977C120.525 44.4977 122.212 42.8715 122.212 40.8656C122.212 38.8596 120.525 37.2334 118.444 37.2334C116.362 37.2334 114.675 38.8596 114.675 40.8656C114.675 42.8715 116.362 44.4977 118.444 44.4977Z" fill="#F7F7F7"/>
<path d="M137.521 44.4977C139.602 44.4977 141.29 42.8715 141.29 40.8656C141.29 38.8596 139.602 37.2334 137.521 37.2334C135.439 37.2334 133.752 38.8596 133.752 40.8656C133.752 42.8715 135.439 44.4977 137.521 44.4977Z" fill="#F7F7F7"/>
<path d="M156.598 44.4977C158.679 44.4977 160.367 42.8715 160.367 40.8656C160.367 38.8596 158.679 37.2334 156.598 37.2334C154.517 37.2334 152.829 38.8596 152.829 40.8656C152.829 42.8715 154.517 44.4977 156.598 44.4977Z" fill="#F7F7F7"/>
<path d="M175.675 44.4977C177.756 44.4977 179.444 42.8715 179.444 40.8656C179.444 38.8596 177.756 37.2334 175.675 37.2334C173.594 37.2334 171.906 38.8596 171.906 40.8656C171.906 42.8715 173.594 44.4977 175.675 44.4977Z" fill="#F7F7F7"/>
<path d="M3.98087 63.1142C6.06227 63.1142 7.74957 61.4881 7.74957 59.4821C7.74957 57.4761 6.06227 55.85 3.98087 55.85C1.89947 55.85 0.212158 57.4761 0.212158 59.4821C0.212158 61.4881 1.89947 63.1142 3.98087 63.1142Z" fill="#F7F7F7"/>
<path d="M23.058 63.1142C25.1394 63.1142 26.8267 61.4881 26.8267 59.4821C26.8267 57.4761 25.1394 55.85 23.058 55.85C20.9766 55.85 19.2893 57.4761 19.2893 59.4821C19.2893 61.4881 20.9766 63.1142 23.058 63.1142Z" fill="#F7F7F7"/>
<path d="M42.1351 63.1142C44.2165 63.1142 45.9038 61.4881 45.9038 59.4821C45.9038 57.4761 44.2165 55.85 42.1351 55.85C40.0537 55.85 38.3664 57.4761 38.3664 59.4821C38.3664 61.4881 40.0537 63.1142 42.1351 63.1142Z" fill="#F7F7F7"/>
<path d="M61.2123 63.1142C63.2937 63.1142 64.981 61.4881 64.981 59.4821C64.981 57.4761 63.2937 55.85 61.2123 55.85C59.1309 55.85 57.4436 57.4761 57.4436 59.4821C57.4436 61.4881 59.1309 63.1142 61.2123 63.1142Z" fill="#F7F7F7"/>
<path d="M80.2894 63.1142C82.3708 63.1142 84.0581 61.4881 84.0581 59.4821C84.0581 57.4761 82.3708 55.85 80.2894 55.85C78.208 55.85 76.5207 57.4761 76.5207 59.4821C76.5207 61.4881 78.208 63.1142 80.2894 63.1142Z" fill="#F7F7F7"/>
<path d="M99.3666 63.1142C101.448 63.1142 103.135 61.4881 103.135 59.4821C103.135 57.4761 101.448 55.85 99.3666 55.85C97.2851 55.85 95.5978 57.4761 95.5978 59.4821C95.5978 61.4881 97.2851 63.1142 99.3666 63.1142Z" fill="#F7F7F7"/>
<path d="M118.444 63.1142C120.525 63.1142 122.212 61.4881 122.212 59.4821C122.212 57.4761 120.525 55.85 118.444 55.85C116.362 55.85 114.675 57.4761 114.675 59.4821C114.675 61.4881 116.362 63.1142 118.444 63.1142Z" fill="#F7F7F7"/>
<path d="M137.521 63.1142C139.602 63.1142 141.29 61.4881 141.29 59.4821C141.29 57.4761 139.602 55.85 137.521 55.85C135.439 55.85 133.752 57.4761 133.752 59.4821C133.752 61.4881 135.439 63.1142 137.521 63.1142Z" fill="#F7F7F7"/>
<path d="M156.598 63.1142C158.679 63.1142 160.367 61.4881 160.367 59.4821C160.367 57.4761 158.679 55.85 156.598 55.85C154.517 55.85 152.829 57.4761 152.829 59.4821C152.829 61.4881 154.517 63.1142 156.598 63.1142Z" fill="#F7F7F7"/>
<path d="M175.675 63.1142C177.756 63.1142 179.444 61.4881 179.444 59.4821C179.444 57.4761 177.756 55.85 175.675 55.85C173.594 55.85 171.906 57.4761 171.906 59.4821C171.906 61.4881 173.594 63.1142 175.675 63.1142Z" fill="#F7F7F7"/>
<path d="M3.98087 81.7308C6.06227 81.7308 7.74957 80.1046 7.74957 78.0987C7.74957 76.0927 6.06227 74.4665 3.98087 74.4665C1.89947 74.4665 0.212158 76.0927 0.212158 78.0987C0.212158 80.1046 1.89947 81.7308 3.98087 81.7308Z" fill="#F7F7F7"/>
<path d="M23.058 81.7308C25.1394 81.7308 26.8267 80.1046 26.8267 78.0987C26.8267 76.0927 25.1394 74.4665 23.058 74.4665C20.9766 74.4665 19.2893 76.0927 19.2893 78.0987C19.2893 80.1046 20.9766 81.7308 23.058 81.7308Z" fill="#F7F7F7"/>
<path d="M42.1351 81.7308C44.2165 81.7308 45.9038 80.1046 45.9038 78.0987C45.9038 76.0927 44.2165 74.4665 42.1351 74.4665C40.0537 74.4665 38.3664 76.0927 38.3664 78.0987C38.3664 80.1046 40.0537 81.7308 42.1351 81.7308Z" fill="#F7F7F7"/>
<path d="M61.2123 81.7308C63.2937 81.7308 64.981 80.1046 64.981 78.0987C64.981 76.0927 63.2937 74.4665 61.2123 74.4665C59.1309 74.4665 57.4436 76.0927 57.4436 78.0987C57.4436 80.1046 59.1309 81.7308 61.2123 81.7308Z" fill="#F7F7F7"/>
<path d="M80.2894 81.7308C82.3708 81.7308 84.0581 80.1046 84.0581 78.0987C84.0581 76.0927 82.3708 74.4665 80.2894 74.4665C78.208 74.4665 76.5207 76.0927 76.5207 78.0987C76.5207 80.1046 78.208 81.7308 80.2894 81.7308Z" fill="#F7F7F7"/>
<path d="M99.3666 81.7308C101.448 81.7308 103.135 80.1046 103.135 78.0987C103.135 76.0927 101.448 74.4665 99.3666 74.4665C97.2851 74.4665 95.5978 76.0927 95.5978 78.0987C95.5978 80.1046 97.2851 81.7308 99.3666 81.7308Z" fill="#F7F7F7"/>
<path d="M118.444 81.7308C120.525 81.7308 122.212 80.1046 122.212 78.0987C122.212 76.0927 120.525 74.4665 118.444 74.4665C116.362 74.4665 114.675 76.0927 114.675 78.0987C114.675 80.1046 116.362 81.7308 118.444 81.7308Z" fill="#F7F7F7"/>
<path d="M137.521 81.7308C139.602 81.7308 141.29 80.1046 141.29 78.0987C141.29 76.0927 139.602 74.4665 137.521 74.4665C135.439 74.4665 133.752 76.0927 133.752 78.0987C133.752 80.1046 135.439 81.7308 137.521 81.7308Z" fill="#F7F7F7"/>
<path d="M156.598 81.7308C158.679 81.7308 160.367 80.1046 160.367 78.0987C160.367 76.0927 158.679 74.4665 156.598 74.4665C154.517 74.4665 152.829 76.0927 152.829 78.0987C152.829 80.1046 154.517 81.7308 156.598 81.7308Z" fill="#F7F7F7"/>
<path d="M175.675 81.7308C177.756 81.7308 179.444 80.1046 179.444 78.0987C179.444 76.0927 177.756 74.4665 175.675 74.4665C173.594 74.4665 171.906 76.0927 171.906 78.0987C171.906 80.1046 173.594 81.7308 175.675 81.7308Z" fill="#F7F7F7"/>
<path d="M3.98087 100.347C6.06227 100.347 7.74957 98.7212 7.74957 96.7152C7.74957 94.7092 6.06227 93.0831 3.98087 93.0831C1.89947 93.0831 0.212158 94.7092 0.212158 96.7152C0.212158 98.7212 1.89947 100.347 3.98087 100.347Z" fill="#F7F7F7"/>
<path d="M23.058 100.347C25.1394 100.347 26.8267 98.7212 26.8267 96.7152C26.8267 94.7092 25.1394 93.0831 23.058 93.0831C20.9766 93.0831 19.2893 94.7092 19.2893 96.7152C19.2893 98.7212 20.9766 100.347 23.058 100.347Z" fill="#F7F7F7"/>
<path d="M42.1351 100.347C44.2165 100.347 45.9038 98.7212 45.9038 96.7152C45.9038 94.7092 44.2165 93.0831 42.1351 93.0831C40.0537 93.0831 38.3664 94.7092 38.3664 96.7152C38.3664 98.7212 40.0537 100.347 42.1351 100.347Z" fill="#F7F7F7"/>
<path d="M61.2123 100.347C63.2937 100.347 64.981 98.7212 64.981 96.7152C64.981 94.7092 63.2937 93.0831 61.2123 93.0831C59.1309 93.0831 57.4436 94.7092 57.4436 96.7152C57.4436 98.7212 59.1309 100.347 61.2123 100.347Z" fill="#F7F7F7"/>
<path d="M80.2894 100.347C82.3708 100.347 84.0581 98.7212 84.0581 96.7152C84.0581 94.7092 82.3708 93.0831 80.2894 93.0831C78.208 93.0831 76.5207 94.7092 76.5207 96.7152C76.5207 98.7212 78.208 100.347 80.2894 100.347Z" fill="#F7F7F7"/>
<path d="M99.3666 100.347C101.448 100.347 103.135 98.7212 103.135 96.7152C103.135 94.7092 101.448 93.0831 99.3666 93.0831C97.2851 93.0831 95.5978 94.7092 95.5978 96.7152C95.5978 98.7212 97.2851 100.347 99.3666 100.347Z" fill="#F7F7F7"/>
<path d="M118.444 100.347C120.525 100.347 122.212 98.7212 122.212 96.7152C122.212 94.7092 120.525 93.0831 118.444 93.0831C116.362 93.0831 114.675 94.7092 114.675 96.7152C114.675 98.7212 116.362 100.347 118.444 100.347Z" fill="#F7F7F7"/>
<path d="M137.521 100.347C139.602 100.347 141.29 98.7212 141.29 96.7152C141.29 94.7092 139.602 93.0831 137.521 93.0831C135.439 93.0831 133.752 94.7092 133.752 96.7152C133.752 98.7212 135.439 100.347 137.521 100.347Z" fill="#F7F7F7"/>
<path d="M156.598 100.347C158.679 100.347 160.367 98.7212 160.367 96.7152C160.367 94.7092 158.679 93.0831 156.598 93.0831C154.517 93.0831 152.829 94.7092 152.829 96.7152C152.829 98.7212 154.517 100.347 156.598 100.347Z" fill="#F7F7F7"/>
<path d="M175.675 100.347C177.756 100.347 179.444 98.7212 179.444 96.7152C179.444 94.7092 177.756 93.0831 175.675 93.0831C173.594 93.0831 171.906 94.7092 171.906 96.7152C171.906 98.7212 173.594 100.347 175.675 100.347Z" fill="#F7F7F7"/>
<path d="M3.98087 118.964C6.06227 118.964 7.74957 117.338 7.74957 115.332C7.74957 113.326 6.06227 111.7 3.98087 111.7C1.89947 111.7 0.212158 113.326 0.212158 115.332C0.212158 117.338 1.89947 118.964 3.98087 118.964Z" fill="#F7F7F7"/>
<path d="M23.058 118.964C25.1394 118.964 26.8267 117.338 26.8267 115.332C26.8267 113.326 25.1394 111.7 23.058 111.7C20.9766 111.7 19.2893 113.326 19.2893 115.332C19.2893 117.338 20.9766 118.964 23.058 118.964Z" fill="#F7F7F7"/>
<path d="M42.1351 118.964C44.2165 118.964 45.9038 117.338 45.9038 115.332C45.9038 113.326 44.2165 111.7 42.1351 111.7C40.0537 111.7 38.3664 113.326 38.3664 115.332C38.3664 117.338 40.0537 118.964 42.1351 118.964Z" fill="#F7F7F7"/>
<path d="M61.2123 118.964C63.2937 118.964 64.981 117.338 64.981 115.332C64.981 113.326 63.2937 111.7 61.2123 111.7C59.1309 111.7 57.4436 113.326 57.4436 115.332C57.4436 117.338 59.1309 118.964 61.2123 118.964Z" fill="#F7F7F7"/>
<path d="M80.2894 118.964C82.3708 118.964 84.0581 117.338 84.0581 115.332C84.0581 113.326 82.3708 111.7 80.2894 111.7C78.208 111.7 76.5207 113.326 76.5207 115.332C76.5207 117.338 78.208 118.964 80.2894 118.964Z" fill="#F7F7F7"/>
<path d="M99.3666 118.964C101.448 118.964 103.135 117.338 103.135 115.332C103.135 113.326 101.448 111.7 99.3666 111.7C97.2851 111.7 95.5978 113.326 95.5978 115.332C95.5978 117.338 97.2851 118.964 99.3666 118.964Z" fill="#F7F7F7"/>
<path d="M118.444 118.964C120.525 118.964 122.212 117.338 122.212 115.332C122.212 113.326 120.525 111.7 118.444 111.7C116.362 111.7 114.675 113.326 114.675 115.332C114.675 117.338 116.362 118.964 118.444 118.964Z" fill="#F7F7F7"/>
<path d="M137.521 118.964C139.602 118.964 141.29 117.338 141.29 115.332C141.29 113.326 139.602 111.7 137.521 111.7C135.439 111.7 133.752 113.326 133.752 115.332C133.752 117.338 135.439 118.964 137.521 118.964Z" fill="#F7F7F7"/>
<path d="M156.598 118.964C158.679 118.964 160.367 117.338 160.367 115.332C160.367 113.326 158.679 111.7 156.598 111.7C154.517 111.7 152.829 113.326 152.829 115.332C152.829 117.338 154.517 118.964 156.598 118.964Z" fill="#F7F7F7"/>
<path d="M175.675 118.964C177.756 118.964 179.444 117.338 179.444 115.332C179.444 113.326 177.756 111.7 175.675 111.7C173.594 111.7 171.906 113.326 171.906 115.332C171.906 117.338 173.594 118.964 175.675 118.964Z" fill="#F7F7F7"/>
<path d="M3.98087 137.58C6.06227 137.58 7.74957 135.954 7.74957 133.948C7.74957 131.942 6.06227 130.316 3.98087 130.316C1.89947 130.316 0.212158 131.942 0.212158 133.948C0.212158 135.954 1.89947 137.58 3.98087 137.58Z" fill="#F7F7F7"/>
<path d="M23.058 137.58C25.1394 137.58 26.8267 135.954 26.8267 133.948C26.8267 131.942 25.1394 130.316 23.058 130.316C20.9766 130.316 19.2893 131.942 19.2893 133.948C19.2893 135.954 20.9766 137.58 23.058 137.58Z" fill="#F7F7F7"/>
<path d="M42.1351 137.58C44.2165 137.58 45.9038 135.954 45.9038 133.948C45.9038 131.942 44.2165 130.316 42.1351 130.316C40.0537 130.316 38.3664 131.942 38.3664 133.948C38.3664 135.954 40.0537 137.58 42.1351 137.58Z" fill="#F7F7F7"/>
<path d="M61.2123 137.58C63.2937 137.58 64.981 135.954 64.981 133.948C64.981 131.942 63.2937 130.316 61.2123 130.316C59.1309 130.316 57.4436 131.942 57.4436 133.948C57.4436 135.954 59.1309 137.58 61.2123 137.58Z" fill="#F7F7F7"/>
<path d="M80.2894 137.58C82.3708 137.58 84.0581 135.954 84.0581 133.948C84.0581 131.942 82.3708 130.316 80.2894 130.316C78.208 130.316 76.5207 131.942 76.5207 133.948C76.5207 135.954 78.208 137.58 80.2894 137.58Z" fill="#F7F7F7"/>
<path d="M99.3666 137.58C101.448 137.58 103.135 135.954 103.135 133.948C103.135 131.942 101.448 130.316 99.3666 130.316C97.2851 130.316 95.5978 131.942 95.5978 133.948C95.5978 135.954 97.2851 137.58 99.3666 137.58Z" fill="#F7F7F7"/>
<path d="M118.444 137.58C120.525 137.58 122.212 135.954 122.212 133.948C122.212 131.942 120.525 130.316 118.444 130.316C116.362 130.316 114.675 131.942 114.675 133.948C114.675 135.954 116.362 137.58 118.444 137.58Z" fill="#F7F7F7"/>
<path d="M137.521 137.58C139.602 137.58 141.29 135.954 141.29 133.948C141.29 131.942 139.602 130.316 137.521 130.316C135.439 130.316 133.752 131.942 133.752 133.948C133.752 135.954 135.439 137.58 137.521 137.58Z" fill="#F7F7F7"/>
<path d="M156.598 137.58C158.679 137.58 160.367 135.954 160.367 133.948C160.367 131.942 158.679 130.316 156.598 130.316C154.517 130.316 152.829 131.942 152.829 133.948C152.829 135.954 154.517 137.58 156.598 137.58Z" fill="#F7F7F7"/>
<path d="M175.675 137.58C177.756 137.58 179.444 135.954 179.444 133.948C179.444 131.942 177.756 130.316 175.675 130.316C173.594 130.316 171.906 131.942 171.906 133.948C171.906 135.954 173.594 137.58 175.675 137.58Z" fill="#F7F7F7"/>
<path d="M3.98087 156.197C6.06227 156.197 7.74957 154.571 7.74957 152.565C7.74957 150.559 6.06227 148.933 3.98087 148.933C1.89947 148.933 0.212158 150.559 0.212158 152.565C0.212158 154.571 1.89947 156.197 3.98087 156.197Z" fill="#F7F7F7"/>
<path d="M23.058 156.197C25.1394 156.197 26.8267 154.571 26.8267 152.565C26.8267 150.559 25.1394 148.933 23.058 148.933C20.9766 148.933 19.2893 150.559 19.2893 152.565C19.2893 154.571 20.9766 156.197 23.058 156.197Z" fill="#F7F7F7"/>
<path d="M42.1351 156.197C44.2165 156.197 45.9038 154.571 45.9038 152.565C45.9038 150.559 44.2165 148.933 42.1351 148.933C40.0537 148.933 38.3664 150.559 38.3664 152.565C38.3664 154.571 40.0537 156.197 42.1351 156.197Z" fill="#F7F7F7"/>
<path d="M61.2123 156.197C63.2937 156.197 64.981 154.571 64.981 152.565C64.981 150.559 63.2937 148.933 61.2123 148.933C59.1309 148.933 57.4436 150.559 57.4436 152.565C57.4436 154.571 59.1309 156.197 61.2123 156.197Z" fill="#F7F7F7"/>
<path d="M80.2894 156.197C82.3708 156.197 84.0581 154.571 84.0581 152.565C84.0581 150.559 82.3708 148.933 80.2894 148.933C78.208 148.933 76.5207 150.559 76.5207 152.565C76.5207 154.571 78.208 156.197 80.2894 156.197Z" fill="#F7F7F7"/>
<path d="M99.3666 156.197C101.448 156.197 103.135 154.571 103.135 152.565C103.135 150.559 101.448 148.933 99.3666 148.933C97.2851 148.933 95.5978 150.559 95.5978 152.565C95.5978 154.571 97.2851 156.197 99.3666 156.197Z" fill="#F7F7F7"/>
<path d="M118.444 156.197C120.525 156.197 122.212 154.571 122.212 152.565C122.212 150.559 120.525 148.933 118.444 148.933C116.362 148.933 114.675 150.559 114.675 152.565C114.675 154.571 116.362 156.197 118.444 156.197Z" fill="#F7F7F7"/>
<path d="M137.521 156.197C139.602 156.197 141.29 154.571 141.29 152.565C141.29 150.559 139.602 148.933 137.521 148.933C135.439 148.933 133.752 150.559 133.752 152.565C133.752 154.571 135.439 156.197 137.521 156.197Z" fill="#F7F7F7"/>
<path d="M156.598 156.197C158.679 156.197 160.367 154.571 160.367 152.565C160.367 150.559 158.679 148.933 156.598 148.933C154.517 148.933 152.829 150.559 152.829 152.565C152.829 154.571 154.517 156.197 156.598 156.197Z" fill="#F7F7F7"/>
<path d="M175.675 156.197C177.756 156.197 179.444 154.571 179.444 152.565C179.444 150.559 177.756 148.933 175.675 148.933C173.594 148.933 171.906 150.559 171.906 152.565C171.906 154.571 173.594 156.197 175.675 156.197Z" fill="#F7F7F7"/>
<path d="M3.98087 174.813C6.06227 174.813 7.74957 173.187 7.74957 171.181C7.74957 169.175 6.06227 167.549 3.98087 167.549C1.89947 167.549 0.212158 169.175 0.212158 171.181C0.212158 173.187 1.89947 174.813 3.98087 174.813Z" fill="#F7F7F7"/>
<path d="M23.058 174.813C25.1394 174.813 26.8267 173.187 26.8267 171.181C26.8267 169.175 25.1394 167.549 23.058 167.549C20.9766 167.549 19.2893 169.175 19.2893 171.181C19.2893 173.187 20.9766 174.813 23.058 174.813Z" fill="#F7F7F7"/>
<path d="M42.1351 174.813C44.2165 174.813 45.9038 173.187 45.9038 171.181C45.9038 169.175 44.2165 167.549 42.1351 167.549C40.0537 167.549 38.3664 169.175 38.3664 171.181C38.3664 173.187 40.0537 174.813 42.1351 174.813Z" fill="#F7F7F7"/>
<path d="M61.2123 174.813C63.2937 174.813 64.981 173.187 64.981 171.181C64.981 169.175 63.2937 167.549 61.2123 167.549C59.1309 167.549 57.4436 169.175 57.4436 171.181C57.4436 173.187 59.1309 174.813 61.2123 174.813Z" fill="#F7F7F7"/>
<path d="M80.2894 174.813C82.3708 174.813 84.0581 173.187 84.0581 171.181C84.0581 169.175 82.3708 167.549 80.2894 167.549C78.208 167.549 76.5207 169.175 76.5207 171.181C76.5207 173.187 78.208 174.813 80.2894 174.813Z" fill="#F7F7F7"/>
<path d="M99.3666 174.813C101.448 174.813 103.135 173.187 103.135 171.181C103.135 169.175 101.448 167.549 99.3666 167.549C97.2851 167.549 95.5978 169.175 95.5978 171.181C95.5978 173.187 97.2851 174.813 99.3666 174.813Z" fill="#F7F7F7"/>
<path d="M118.444 174.813C120.525 174.813 122.212 173.187 122.212 171.181C122.212 169.175 120.525 167.549 118.444 167.549C116.362 167.549 114.675 169.175 114.675 171.181C114.675 173.187 116.362 174.813 118.444 174.813Z" fill="#F7F7F7"/>
<path d="M137.521 174.813C139.602 174.813 141.29 173.187 141.29 171.181C141.29 169.175 139.602 167.549 137.521 167.549C135.439 167.549 133.752 169.175 133.752 171.181C133.752 173.187 135.439 174.813 137.521 174.813Z" fill="#F7F7F7"/>
<path d="M156.598 174.813C158.679 174.813 160.367 173.187 160.367 171.181C160.367 169.175 158.679 167.549 156.598 167.549C154.517 167.549 152.829 169.175 152.829 171.181C152.829 173.187 154.517 174.813 156.598 174.813Z" fill="#F7F7F7"/>
<path d="M175.675 174.813C177.756 174.813 179.444 173.187 179.444 171.181C179.444 169.175 177.756 167.549 175.675 167.549C173.594 167.549 171.906 169.175 171.906 171.181C171.906 173.187 173.594 174.813 175.675 174.813Z" fill="#F7F7F7"/>
<path d="M3.98087 7.26507C6.06227 7.26507 7.74957 5.63892 7.74957 3.63295C7.74957 1.62698 6.06227 0.000823975 3.98087 0.000823975C1.89947 0.000823975 0.212158 1.62698 0.212158 3.63295C0.212158 5.63892 1.89947 7.26507 3.98087 7.26507Z" fill="#F7F7F7"/>
<path d="M23.058 7.26507C25.1394 7.26507 26.8267 5.63892 26.8267 3.63295C26.8267 1.62698 25.1394 0.000823975 23.058 0.000823975C20.9766 0.000823975 19.2893 1.62698 19.2893 3.63295C19.2893 5.63892 20.9766 7.26507 23.058 7.26507Z" fill="#F7F7F7"/>
<path d="M42.1351 7.26507C44.2165 7.26507 45.9038 5.63892 45.9038 3.63295C45.9038 1.62698 44.2165 0.000823975 42.1351 0.000823975C40.0537 0.000823975 38.3664 1.62698 38.3664 3.63295C38.3664 5.63892 40.0537 7.26507 42.1351 7.26507Z" fill="#F7F7F7"/>
<path d="M61.2123 7.26507C63.2937 7.26507 64.981 5.63892 64.981 3.63295C64.981 1.62698 63.2937 0.000823975 61.2123 0.000823975C59.1309 0.000823975 57.4436 1.62698 57.4436 3.63295C57.4436 5.63892 59.1309 7.26507 61.2123 7.26507Z" fill="#F7F7F7"/>
<path d="M80.2894 7.26507C82.3708 7.26507 84.0581 5.63892 84.0581 3.63295C84.0581 1.62698 82.3708 0.000823975 80.2894 0.000823975C78.208 0.000823975 76.5207 1.62698 76.5207 3.63295C76.5207 5.63892 78.208 7.26507 80.2894 7.26507Z" fill="#F7F7F7"/>
<path d="M99.3666 7.26507C101.448 7.26507 103.135 5.63892 103.135 3.63295C103.135 1.62698 101.448 0.000823975 99.3666 0.000823975C97.2851 0.000823975 95.5978 1.62698 95.5978 3.63295C95.5978 5.63892 97.2851 7.26507 99.3666 7.26507Z" fill="#F7F7F7"/>
<path d="M118.444 7.26507C120.525 7.26507 122.212 5.63892 122.212 3.63295C122.212 1.62698 120.525 0.000823975 118.444 0.000823975C116.362 0.000823975 114.675 1.62698 114.675 3.63295C114.675 5.63892 116.362 7.26507 118.444 7.26507Z" fill="#F7F7F7"/>
<path d="M137.521 7.26507C139.602 7.26507 141.29 5.63892 141.29 3.63295C141.29 1.62698 139.602 0.000823975 137.521 0.000823975C135.439 0.000823975 133.752 1.62698 133.752 3.63295C133.752 5.63892 135.439 7.26507 137.521 7.26507Z" fill="#F7F7F7"/>
<path d="M156.598 7.26507C158.679 7.26507 160.367 5.63892 160.367 3.63295C160.367 1.62698 158.679 0.000823975 156.598 0.000823975C154.517 0.000823975 152.829 1.62698 152.829 3.63295C152.829 5.63892 154.517 7.26507 156.598 7.26507Z" fill="#F7F7F7"/>
<path d="M175.675 7.26507C177.756 7.26507 179.444 5.63892 179.444 3.63295C179.444 1.62698 177.756 0.000823975 175.675 0.000823975C173.594 0.000823975 171.906 1.62698 171.906 3.63295C171.906 5.63892 173.594 7.26507 175.675 7.26507Z" fill="#F7F7F7"/>
<path d="M3.98087 25.8812C6.06227 25.8812 7.74957 24.255 7.74957 22.249C7.74957 20.2431 6.06227 18.6169 3.98087 18.6169C1.89947 18.6169 0.212158 20.2431 0.212158 22.249C0.212158 24.255 1.89947 25.8812 3.98087 25.8812Z" fill="#F7F7F7"/>
<path d="M23.058 25.8812C25.1394 25.8812 26.8267 24.255 26.8267 22.249C26.8267 20.2431 25.1394 18.6169 23.058 18.6169C20.9766 18.6169 19.2893 20.2431 19.2893 22.249C19.2893 24.255 20.9766 25.8812 23.058 25.8812Z" fill="#F7F7F7"/>
<path d="M42.1351 25.8812C44.2165 25.8812 45.9038 24.255 45.9038 22.249C45.9038 20.2431 44.2165 18.6169 42.1351 18.6169C40.0537 18.6169 38.3664 20.2431 38.3664 22.249C38.3664 24.255 40.0537 25.8812 42.1351 25.8812Z" fill="#F7F7F7"/>
<path d="M61.2123 25.8812C63.2937 25.8812 64.981 24.255 64.981 22.249C64.981 20.2431 63.2937 18.6169 61.2123 18.6169C59.1309 18.6169 57.4436 20.2431 57.4436 22.249C57.4436 24.255 59.1309 25.8812 61.2123 25.8812Z" fill="#F7F7F7"/>
<path d="M80.2894 25.8812C82.3708 25.8812 84.0581 24.255 84.0581 22.249C84.0581 20.2431 82.3708 18.6169 80.2894 18.6169C78.208 18.6169 76.5207 20.2431 76.5207 22.249C76.5207 24.255 78.208 25.8812 80.2894 25.8812Z" fill="#F7F7F7"/>
<path d="M99.3666 25.8812C101.448 25.8812 103.135 24.255 103.135 22.249C103.135 20.2431 101.448 18.6169 99.3666 18.6169C97.2851 18.6169 95.5978 20.2431 95.5978 22.249C95.5978 24.255 97.2851 25.8812 99.3666 25.8812Z" fill="#F7F7F7"/>
<path d="M118.444 25.8812C120.525 25.8812 122.212 24.255 122.212 22.249C122.212 20.2431 120.525 18.6169 118.444 18.6169C116.362 18.6169 114.675 20.2431 114.675 22.249C114.675 24.255 116.362 25.8812 118.444 25.8812Z" fill="#F7F7F7"/>
<path d="M137.521 25.8812C139.602 25.8812 141.29 24.255 141.29 22.249C141.29 20.2431 139.602 18.6169 137.521 18.6169C135.439 18.6169 133.752 20.2431 133.752 22.249C133.752 24.255 135.439 25.8812 137.521 25.8812Z" fill="#F7F7F7"/>
<path d="M156.598 25.8812C158.679 25.8812 160.367 24.255 160.367 22.249C160.367 20.2431 158.679 18.6169 156.598 18.6169C154.517 18.6169 152.829 20.2431 152.829 22.249C152.829 24.255 154.517 25.8812 156.598 25.8812Z" fill="#F7F7F7"/>
<path d="M175.675 25.8812C177.756 25.8812 179.444 24.255 179.444 22.249C179.444 20.2431 177.756 18.6169 175.675 18.6169C173.594 18.6169 171.906 20.2431 171.906 22.249C171.906 24.255 173.594 25.8812 175.675 25.8812Z" fill="#F7F7F7"/>
<path d="M3.98087 44.4977C6.06227 44.4977 7.74957 42.8715 7.74957 40.8656C7.74957 38.8596 6.06227 37.2334 3.98087 37.2334C1.89947 37.2334 0.212158 38.8596 0.212158 40.8656C0.212158 42.8715 1.89947 44.4977 3.98087 44.4977Z" fill="#F7F7F7"/>
<path d="M23.058 44.4977C25.1394 44.4977 26.8267 42.8715 26.8267 40.8656C26.8267 38.8596 25.1394 37.2334 23.058 37.2334C20.9766 37.2334 19.2893 38.8596 19.2893 40.8656C19.2893 42.8715 20.9766 44.4977 23.058 44.4977Z" fill="#F7F7F7"/>
<path d="M42.1351 44.4977C44.2165 44.4977 45.9038 42.8715 45.9038 40.8656C45.9038 38.8596 44.2165 37.2334 42.1351 37.2334C40.0537 37.2334 38.3664 38.8596 38.3664 40.8656C38.3664 42.8715 40.0537 44.4977 42.1351 44.4977Z" fill="#F7F7F7"/>
<path d="M61.2123 44.4977C63.2937 44.4977 64.981 42.8715 64.981 40.8656C64.981 38.8596 63.2937 37.2334 61.2123 37.2334C59.1309 37.2334 57.4436 38.8596 57.4436 40.8656C57.4436 42.8715 59.1309 44.4977 61.2123 44.4977Z" fill="#F7F7F7"/>
<path d="M80.2894 44.4977C82.3708 44.4977 84.0581 42.8715 84.0581 40.8656C84.0581 38.8596 82.3708 37.2334 80.2894 37.2334C78.208 37.2334 76.5207 38.8596 76.5207 40.8656C76.5207 42.8715 78.208 44.4977 80.2894 44.4977Z" fill="#F7F7F7"/>
<path d="M99.3666 44.4977C101.448 44.4977 103.135 42.8715 103.135 40.8656C103.135 38.8596 101.448 37.2334 99.3666 37.2334C97.2851 37.2334 95.5978 38.8596 95.5978 40.8656C95.5978 42.8715 97.2851 44.4977 99.3666 44.4977Z" fill="#F7F7F7"/>
<path d="M118.444 44.4977C120.525 44.4977 122.212 42.8715 122.212 40.8656C122.212 38.8596 120.525 37.2334 118.444 37.2334C116.362 37.2334 114.675 38.8596 114.675 40.8656C114.675 42.8715 116.362 44.4977 118.444 44.4977Z" fill="#F7F7F7"/>
<path d="M137.521 44.4977C139.602 44.4977 141.29 42.8715 141.29 40.8656C141.29 38.8596 139.602 37.2334 137.521 37.2334C135.439 37.2334 133.752 38.8596 133.752 40.8656C133.752 42.8715 135.439 44.4977 137.521 44.4977Z" fill="#F7F7F7"/>
<path d="M156.598 44.4977C158.679 44.4977 160.367 42.8715 160.367 40.8656C160.367 38.8596 158.679 37.2334 156.598 37.2334C154.517 37.2334 152.829 38.8596 152.829 40.8656C152.829 42.8715 154.517 44.4977 156.598 44.4977Z" fill="#F7F7F7"/>
<path d="M175.675 44.4977C177.756 44.4977 179.444 42.8715 179.444 40.8656C179.444 38.8596 177.756 37.2334 175.675 37.2334C173.594 37.2334 171.906 38.8596 171.906 40.8656C171.906 42.8715 173.594 44.4977 175.675 44.4977Z" fill="#F7F7F7"/>
<path d="M3.98087 63.1142C6.06227 63.1142 7.74957 61.4881 7.74957 59.4821C7.74957 57.4761 6.06227 55.85 3.98087 55.85C1.89947 55.85 0.212158 57.4761 0.212158 59.4821C0.212158 61.4881 1.89947 63.1142 3.98087 63.1142Z" fill="#F7F7F7"/>
<path d="M23.058 63.1142C25.1394 63.1142 26.8267 61.4881 26.8267 59.4821C26.8267 57.4761 25.1394 55.85 23.058 55.85C20.9766 55.85 19.2893 57.4761 19.2893 59.4821C19.2893 61.4881 20.9766 63.1142 23.058 63.1142Z" fill="#F7F7F7"/>
<path d="M42.1351 63.1142C44.2165 63.1142 45.9038 61.4881 45.9038 59.4821C45.9038 57.4761 44.2165 55.85 42.1351 55.85C40.0537 55.85 38.3664 57.4761 38.3664 59.4821C38.3664 61.4881 40.0537 63.1142 42.1351 63.1142Z" fill="#F7F7F7"/>
<path d="M61.2123 63.1142C63.2937 63.1142 64.981 61.4881 64.981 59.4821C64.981 57.4761 63.2937 55.85 61.2123 55.85C59.1309 55.85 57.4436 57.4761 57.4436 59.4821C57.4436 61.4881 59.1309 63.1142 61.2123 63.1142Z" fill="#F7F7F7"/>
<path d="M80.2894 63.1142C82.3708 63.1142 84.0581 61.4881 84.0581 59.4821C84.0581 57.4761 82.3708 55.85 80.2894 55.85C78.208 55.85 76.5207 57.4761 76.5207 59.4821C76.5207 61.4881 78.208 63.1142 80.2894 63.1142Z" fill="#F7F7F7"/>
<path d="M99.3666 63.1142C101.448 63.1142 103.135 61.4881 103.135 59.4821C103.135 57.4761 101.448 55.85 99.3666 55.85C97.2851 55.85 95.5978 57.4761 95.5978 59.4821C95.5978 61.4881 97.2851 63.1142 99.3666 63.1142Z" fill="#F7F7F7"/>
<path d="M118.444 63.1142C120.525 63.1142 122.212 61.4881 122.212 59.4821C122.212 57.4761 120.525 55.85 118.444 55.85C116.362 55.85 114.675 57.4761 114.675 59.4821C114.675 61.4881 116.362 63.1142 118.444 63.1142Z" fill="#F7F7F7"/>
<path d="M137.521 63.1142C139.602 63.1142 141.29 61.4881 141.29 59.4821C141.29 57.4761 139.602 55.85 137.521 55.85C135.439 55.85 133.752 57.4761 133.752 59.4821C133.752 61.4881 135.439 63.1142 137.521 63.1142Z" fill="#F7F7F7"/>
<path d="M156.598 63.1142C158.679 63.1142 160.367 61.4881 160.367 59.4821C160.367 57.4761 158.679 55.85 156.598 55.85C154.517 55.85 152.829 57.4761 152.829 59.4821C152.829 61.4881 154.517 63.1142 156.598 63.1142Z" fill="#F7F7F7"/>
<path d="M175.675 63.1142C177.756 63.1142 179.444 61.4881 179.444 59.4821C179.444 57.4761 177.756 55.85 175.675 55.85C173.594 55.85 171.906 57.4761 171.906 59.4821C171.906 61.4881 173.594 63.1142 175.675 63.1142Z" fill="#F7F7F7"/>
<path d="M3.98087 81.7308C6.06227 81.7308 7.74957 80.1046 7.74957 78.0987C7.74957 76.0927 6.06227 74.4665 3.98087 74.4665C1.89947 74.4665 0.212158 76.0927 0.212158 78.0987C0.212158 80.1046 1.89947 81.7308 3.98087 81.7308Z" fill="#F7F7F7"/>
<path d="M23.058 81.7308C25.1394 81.7308 26.8267 80.1046 26.8267 78.0987C26.8267 76.0927 25.1394 74.4665 23.058 74.4665C20.9766 74.4665 19.2893 76.0927 19.2893 78.0987C19.2893 80.1046 20.9766 81.7308 23.058 81.7308Z" fill="#F7F7F7"/>
<path d="M42.1351 81.7308C44.2165 81.7308 45.9038 80.1046 45.9038 78.0987C45.9038 76.0927 44.2165 74.4665 42.1351 74.4665C40.0537 74.4665 38.3664 76.0927 38.3664 78.0987C38.3664 80.1046 40.0537 81.7308 42.1351 81.7308Z" fill="#F7F7F7"/>
<path d="M61.2123 81.7308C63.2937 81.7308 64.981 80.1046 64.981 78.0987C64.981 76.0927 63.2937 74.4665 61.2123 74.4665C59.1309 74.4665 57.4436 76.0927 57.4436 78.0987C57.4436 80.1046 59.1309 81.7308 61.2123 81.7308Z" fill="#F7F7F7"/>
<path d="M80.2894 81.7308C82.3708 81.7308 84.0581 80.1046 84.0581 78.0987C84.0581 76.0927 82.3708 74.4665 80.2894 74.4665C78.208 74.4665 76.5207 76.0927 76.5207 78.0987C76.5207 80.1046 78.208 81.7308 80.2894 81.7308Z" fill="#F7F7F7"/>
<path d="M99.3666 81.7308C101.448 81.7308 103.135 80.1046 103.135 78.0987C103.135 76.0927 101.448 74.4665 99.3666 74.4665C97.2851 74.4665 95.5978 76.0927 95.5978 78.0987C95.5978 80.1046 97.2851 81.7308 99.3666 81.7308Z" fill="#F7F7F7"/>
<path d="M118.444 81.7308C120.525 81.7308 122.212 80.1046 122.212 78.0987C122.212 76.0927 120.525 74.4665 118.444 74.4665C116.362 74.4665 114.675 76.0927 114.675 78.0987C114.675 80.1046 116.362 81.7308 118.444 81.7308Z" fill="#F7F7F7"/>
<path d="M137.521 81.7308C139.602 81.7308 141.29 80.1046 141.29 78.0987C141.29 76.0927 139.602 74.4665 137.521 74.4665C135.439 74.4665 133.752 76.0927 133.752 78.0987C133.752 80.1046 135.439 81.7308 137.521 81.7308Z" fill="#F7F7F7"/>
<path d="M156.598 81.7308C158.679 81.7308 160.367 80.1046 160.367 78.0987C160.367 76.0927 158.679 74.4665 156.598 74.4665C154.517 74.4665 152.829 76.0927 152.829 78.0987C152.829 80.1046 154.517 81.7308 156.598 81.7308Z" fill="#F7F7F7"/>
<path d="M175.675 81.7308C177.756 81.7308 179.444 80.1046 179.444 78.0987C179.444 76.0927 177.756 74.4665 175.675 74.4665C173.594 74.4665 171.906 76.0927 171.906 78.0987C171.906 80.1046 173.594 81.7308 175.675 81.7308Z" fill="#F7F7F7"/>
<path d="M3.98087 100.347C6.06227 100.347 7.74957 98.7212 7.74957 96.7152C7.74957 94.7092 6.06227 93.0831 3.98087 93.0831C1.89947 93.0831 0.212158 94.7092 0.212158 96.7152C0.212158 98.7212 1.89947 100.347 3.98087 100.347Z" fill="#F7F7F7"/>
<path d="M23.058 100.347C25.1394 100.347 26.8267 98.7212 26.8267 96.7152C26.8267 94.7092 25.1394 93.0831 23.058 93.0831C20.9766 93.0831 19.2893 94.7092 19.2893 96.7152C19.2893 98.7212 20.9766 100.347 23.058 100.347Z" fill="#F7F7F7"/>
<path d="M42.1351 100.347C44.2165 100.347 45.9038 98.7212 45.9038 96.7152C45.9038 94.7092 44.2165 93.0831 42.1351 93.0831C40.0537 93.0831 38.3664 94.7092 38.3664 96.7152C38.3664 98.7212 40.0537 100.347 42.1351 100.347Z" fill="#F7F7F7"/>
<path d="M61.2123 100.347C63.2937 100.347 64.981 98.7212 64.981 96.7152C64.981 94.7092 63.2937 93.0831 61.2123 93.0831C59.1309 93.0831 57.4436 94.7092 57.4436 96.7152C57.4436 98.7212 59.1309 100.347 61.2123 100.347Z" fill="#F7F7F7"/>
<path d="M80.2894 100.347C82.3708 100.347 84.0581 98.7212 84.0581 96.7152C84.0581 94.7092 82.3708 93.0831 80.2894 93.0831C78.208 93.0831 76.5207 94.7092 76.5207 96.7152C76.5207 98.7212 78.208 100.347 80.2894 100.347Z" fill="#F7F7F7"/>
<path d="M99.3666 100.347C101.448 100.347 103.135 98.7212 103.135 96.7152C103.135 94.7092 101.448 93.0831 99.3666 93.0831C97.2851 93.0831 95.5978 94.7092 95.5978 96.7152C95.5978 98.7212 97.2851 100.347 99.3666 100.347Z" fill="#F7F7F7"/>
<path d="M118.444 100.347C120.525 100.347 122.212 98.7212 122.212 96.7152C122.212 94.7092 120.525 93.0831 118.444 93.0831C116.362 93.0831 114.675 94.7092 114.675 96.7152C114.675 98.7212 116.362 100.347 118.444 100.347Z" fill="#F7F7F7"/>
<path d="M137.521 100.347C139.602 100.347 141.29 98.7212 141.29 96.7152C141.29 94.7092 139.602 93.0831 137.521 93.0831C135.439 93.0831 133.752 94.7092 133.752 96.7152C133.752 98.7212 135.439 100.347 137.521 100.347Z" fill="#F7F7F7"/>
<path d="M156.598 100.347C158.679 100.347 160.367 98.7212 160.367 96.7152C160.367 94.7092 158.679 93.0831 156.598 93.0831C154.517 93.0831 152.829 94.7092 152.829 96.7152C152.829 98.7212 154.517 100.347 156.598 100.347Z" fill="#F7F7F7"/>
<path d="M175.675 100.347C177.756 100.347 179.444 98.7212 179.444 96.7152C179.444 94.7092 177.756 93.0831 175.675 93.0831C173.594 93.0831 171.906 94.7092 171.906 96.7152C171.906 98.7212 173.594 100.347 175.675 100.347Z" fill="#F7F7F7"/>
<path d="M3.98087 118.964C6.06227 118.964 7.74957 117.338 7.74957 115.332C7.74957 113.326 6.06227 111.7 3.98087 111.7C1.89947 111.7 0.212158 113.326 0.212158 115.332C0.212158 117.338 1.89947 118.964 3.98087 118.964Z" fill="#F7F7F7"/>
<path d="M23.058 118.964C25.1394 118.964 26.8267 117.338 26.8267 115.332C26.8267 113.326 25.1394 111.7 23.058 111.7C20.9766 111.7 19.2893 113.326 19.2893 115.332C19.2893 117.338 20.9766 118.964 23.058 118.964Z" fill="#F7F7F7"/>
<path d="M42.1351 118.964C44.2165 118.964 45.9038 117.338 45.9038 115.332C45.9038 113.326 44.2165 111.7 42.1351 111.7C40.0537 111.7 38.3664 113.326 38.3664 115.332C38.3664 117.338 40.0537 118.964 42.1351 118.964Z" fill="#F7F7F7"/>
<path d="M61.2123 118.964C63.2937 118.964 64.981 117.338 64.981 115.332C64.981 113.326 63.2937 111.7 61.2123 111.7C59.1309 111.7 57.4436 113.326 57.4436 115.332C57.4436 117.338 59.1309 118.964 61.2123 118.964Z" fill="#F7F7F7"/>
<path d="M80.2894 118.964C82.3708 118.964 84.0581 117.338 84.0581 115.332C84.0581 113.326 82.3708 111.7 80.2894 111.7C78.208 111.7 76.5207 113.326 76.5207 115.332C76.5207 117.338 78.208 118.964 80.2894 118.964Z" fill="#F7F7F7"/>
<path d="M99.3666 118.964C101.448 118.964 103.135 117.338 103.135 115.332C103.135 113.326 101.448 111.7 99.3666 111.7C97.2851 111.7 95.5978 113.326 95.5978 115.332C95.5978 117.338 97.2851 118.964 99.3666 118.964Z" fill="#F7F7F7"/>
<path d="M118.444 118.964C120.525 118.964 122.212 117.338 122.212 115.332C122.212 113.326 120.525 111.7 118.444 111.7C116.362 111.7 114.675 113.326 114.675 115.332C114.675 117.338 116.362 118.964 118.444 118.964Z" fill="#F7F7F7"/>
<path d="M137.521 118.964C139.602 118.964 141.29 117.338 141.29 115.332C141.29 113.326 139.602 111.7 137.521 111.7C135.439 111.7 133.752 113.326 133.752 115.332C133.752 117.338 135.439 118.964 137.521 118.964Z" fill="#F7F7F7"/>
<path d="M156.598 118.964C158.679 118.964 160.367 117.338 160.367 115.332C160.367 113.326 158.679 111.7 156.598 111.7C154.517 111.7 152.829 113.326 152.829 115.332C152.829 117.338 154.517 118.964 156.598 118.964Z" fill="#F7F7F7"/>
<path d="M175.675 118.964C177.756 118.964 179.444 117.338 179.444 115.332C179.444 113.326 177.756 111.7 175.675 111.7C173.594 111.7 171.906 113.326 171.906 115.332C171.906 117.338 173.594 118.964 175.675 118.964Z" fill="#F7F7F7"/>
<path d="M3.98087 137.58C6.06227 137.58 7.74957 135.954 7.74957 133.948C7.74957 131.942 6.06227 130.316 3.98087 130.316C1.89947 130.316 0.212158 131.942 0.212158 133.948C0.212158 135.954 1.89947 137.58 3.98087 137.58Z" fill="#F7F7F7"/>
<path d="M23.058 137.58C25.1394 137.58 26.8267 135.954 26.8267 133.948C26.8267 131.942 25.1394 130.316 23.058 130.316C20.9766 130.316 19.2893 131.942 19.2893 133.948C19.2893 135.954 20.9766 137.58 23.058 137.58Z" fill="#F7F7F7"/>
<path d="M42.1351 137.58C44.2165 137.58 45.9038 135.954 45.9038 133.948C45.9038 131.942 44.2165 130.316 42.1351 130.316C40.0537 130.316 38.3664 131.942 38.3664 133.948C38.3664 135.954 40.0537 137.58 42.1351 137.58Z" fill="#F7F7F7"/>
<path d="M61.2123 137.58C63.2937 137.58 64.981 135.954 64.981 133.948C64.981 131.942 63.2937 130.316 61.2123 130.316C59.1309 130.316 57.4436 131.942 57.4436 133.948C57.4436 135.954 59.1309 137.58 61.2123 137.58Z" fill="#F7F7F7"/>
<path d="M80.2894 137.58C82.3708 137.58 84.0581 135.954 84.0581 133.948C84.0581 131.942 82.3708 130.316 80.2894 130.316C78.208 130.316 76.5207 131.942 76.5207 133.948C76.5207 135.954 78.208 137.58 80.2894 137.58Z" fill="#F7F7F7"/>
<path d="M99.3666 137.58C101.448 137.58 103.135 135.954 103.135 133.948C103.135 131.942 101.448 130.316 99.3666 130.316C97.2851 130.316 95.5978 131.942 95.5978 133.948C95.5978 135.954 97.2851 137.58 99.3666 137.58Z" fill="#F7F7F7"/>
<path d="M118.444 137.58C120.525 137.58 122.212 135.954 122.212 133.948C122.212 131.942 120.525 130.316 118.444 130.316C116.362 130.316 114.675 131.942 114.675 133.948C114.675 135.954 116.362 137.58 118.444 137.58Z" fill="#F7F7F7"/>
<path d="M137.521 137.58C139.602 137.58 141.29 135.954 141.29 133.948C141.29 131.942 139.602 130.316 137.521 130.316C135.439 130.316 133.752 131.942 133.752 133.948C133.752 135.954 135.439 137.58 137.521 137.58Z" fill="#F7F7F7"/>
<path d="M156.598 137.58C158.679 137.58 160.367 135.954 160.367 133.948C160.367 131.942 158.679 130.316 156.598 130.316C154.517 130.316 152.829 131.942 152.829 133.948C152.829 135.954 154.517 137.58 156.598 137.58Z" fill="#F7F7F7"/>
<path d="M175.675 137.58C177.756 137.58 179.444 135.954 179.444 133.948C179.444 131.942 177.756 130.316 175.675 130.316C173.594 130.316 171.906 131.942 171.906 133.948C171.906 135.954 173.594 137.58 175.675 137.58Z" fill="#F7F7F7"/>
<path d="M3.98087 156.197C6.06227 156.197 7.74957 154.571 7.74957 152.565C7.74957 150.559 6.06227 148.933 3.98087 148.933C1.89947 148.933 0.212158 150.559 0.212158 152.565C0.212158 154.571 1.89947 156.197 3.98087 156.197Z" fill="#F7F7F7"/>
<path d="M23.058 156.197C25.1394 156.197 26.8267 154.571 26.8267 152.565C26.8267 150.559 25.1394 148.933 23.058 148.933C20.9766 148.933 19.2893 150.559 19.2893 152.565C19.2893 154.571 20.9766 156.197 23.058 156.197Z" fill="#F7F7F7"/>
<path d="M42.1351 156.197C44.2165 156.197 45.9038 154.571 45.9038 152.565C45.9038 150.559 44.2165 148.933 42.1351 148.933C40.0537 148.933 38.3664 150.559 38.3664 152.565C38.3664 154.571 40.0537 156.197 42.1351 156.197Z" fill="#F7F7F7"/>
<path d="M61.2123 156.197C63.2937 156.197 64.981 154.571 64.981 152.565C64.981 150.559 63.2937 148.933 61.2123 148.933C59.1309 148.933 57.4436 150.559 57.4436 152.565C57.4436 154.571 59.1309 156.197 61.2123 156.197Z" fill="#F7F7F7"/>
<path d="M80.2894 156.197C82.3708 156.197 84.0581 154.571 84.0581 152.565C84.0581 150.559 82.3708 148.933 80.2894 148.933C78.208 148.933 76.5207 150.559 76.5207 152.565C76.5207 154.571 78.208 156.197 80.2894 156.197Z" fill="#F7F7F7"/>
<path d="M99.3666 156.197C101.448 156.197 103.135 154.571 103.135 152.565C103.135 150.559 101.448 148.933 99.3666 148.933C97.2851 148.933 95.5978 150.559 95.5978 152.565C95.5978 154.571 97.2851 156.197 99.3666 156.197Z" fill="#F7F7F7"/>
<path d="M118.444 156.197C120.525 156.197 122.212 154.571 122.212 152.565C122.212 150.559 120.525 148.933 118.444 148.933C116.362 148.933 114.675 150.559 114.675 152.565C114.675 154.571 116.362 156.197 118.444 156.197Z" fill="#F7F7F7"/>
<path d="M137.521 156.197C139.602 156.197 141.29 154.571 141.29 152.565C141.29 150.559 139.602 148.933 137.521 148.933C135.439 148.933 133.752 150.559 133.752 152.565C133.752 154.571 135.439 156.197 137.521 156.197Z" fill="#F7F7F7"/>
<path d="M156.598 156.197C158.679 156.197 160.367 154.571 160.367 152.565C160.367 150.559 158.679 148.933 156.598 148.933C154.517 148.933 152.829 150.559 152.829 152.565C152.829 154.571 154.517 156.197 156.598 156.197Z" fill="#F7F7F7"/>
<path d="M175.675 156.197C177.756 156.197 179.444 154.571 179.444 152.565C179.444 150.559 177.756 148.933 175.675 148.933C173.594 148.933 171.906 150.559 171.906 152.565C171.906 154.571 173.594 156.197 175.675 156.197Z" fill="#F7F7F7"/>
<path d="M3.98087 174.813C6.06227 174.813 7.74957 173.187 7.74957 171.181C7.74957 169.175 6.06227 167.549 3.98087 167.549C1.89947 167.549 0.212158 169.175 0.212158 171.181C0.212158 173.187 1.89947 174.813 3.98087 174.813Z" fill="#F7F7F7"/>
<path d="M23.058 174.813C25.1394 174.813 26.8267 173.187 26.8267 171.181C26.8267 169.175 25.1394 167.549 23.058 167.549C20.9766 167.549 19.2893 169.175 19.2893 171.181C19.2893 173.187 20.9766 174.813 23.058 174.813Z" fill="#F7F7F7"/>
<path d="M42.1351 174.813C44.2165 174.813 45.9038 173.187 45.9038 171.181C45.9038 169.175 44.2165 167.549 42.1351 167.549C40.0537 167.549 38.3664 169.175 38.3664 171.181C38.3664 173.187 40.0537 174.813 42.1351 174.813Z" fill="#F7F7F7"/>
<path d="M61.2123 174.813C63.2937 174.813 64.981 173.187 64.981 171.181C64.981 169.175 63.2937 167.549 61.2123 167.549C59.1309 167.549 57.4436 169.175 57.4436 171.181C57.4436 173.187 59.1309 174.813 61.2123 174.813Z" fill="#F7F7F7"/>
<path d="M80.2894 174.813C82.3708 174.813 84.0581 173.187 84.0581 171.181C84.0581 169.175 82.3708 167.549 80.2894 167.549C78.208 167.549 76.5207 169.175 76.5207 171.181C76.5207 173.187 78.208 174.813 80.2894 174.813Z" fill="#F7F7F7"/>
<path d="M99.3666 174.813C101.448 174.813 103.135 173.187 103.135 171.181C103.135 169.175 101.448 167.549 99.3666 167.549C97.2851 167.549 95.5978 169.175 95.5978 171.181C95.5978 173.187 97.2851 174.813 99.3666 174.813Z" fill="#F7F7F7"/>
<path d="M118.444 174.813C120.525 174.813 122.212 173.187 122.212 171.181C122.212 169.175 120.525 167.549 118.444 167.549C116.362 167.549 114.675 169.175 114.675 171.181C114.675 173.187 116.362 174.813 118.444 174.813Z" fill="#F7F7F7"/>
<path d="M137.521 174.813C139.602 174.813 141.29 173.187 141.29 171.181C141.29 169.175 139.602 167.549 137.521 167.549C135.439 167.549 133.752 169.175 133.752 171.181C133.752 173.187 135.439 174.813 137.521 174.813Z" fill="#F7F7F7"/>
<path d="M156.598 174.813C158.679 174.813 160.367 173.187 160.367 171.181C160.367 169.175 158.679 167.549 156.598 167.549C154.517 167.549 152.829 169.175 152.829 171.181C152.829 173.187 154.517 174.813 156.598 174.813Z" fill="#F7F7F7"/>
<path d="M175.675 174.813C177.756 174.813 179.444 173.187 179.444 171.181C179.444 169.175 177.756 167.549 175.675 167.549C173.594 167.549 171.906 169.175 171.906 171.181C171.906 173.187 173.594 174.813 175.675 174.813Z" fill="#F7F7F7"/>
<path d="M3.98087 7.26507C6.06227 7.26507 7.74957 5.63892 7.74957 3.63295C7.74957 1.62698 6.06227 0.000823975 3.98087 0.000823975C1.89947 0.000823975 0.212158 1.62698 0.212158 3.63295C0.212158 5.63892 1.89947 7.26507 3.98087 7.26507Z" fill="#F7F7F7"/>
<path d="M23.058 7.26507C25.1394 7.26507 26.8267 5.63892 26.8267 3.63295C26.8267 1.62698 25.1394 0.000823975 23.058 0.000823975C20.9766 0.000823975 19.2893 1.62698 19.2893 3.63295C19.2893 5.63892 20.9766 7.26507 23.058 7.26507Z" fill="#F7F7F7"/>
<path d="M42.1351 7.26507C44.2165 7.26507 45.9038 5.63892 45.9038 3.63295C45.9038 1.62698 44.2165 0.000823975 42.1351 0.000823975C40.0537 0.000823975 38.3664 1.62698 38.3664 3.63295C38.3664 5.63892 40.0537 7.26507 42.1351 7.26507Z" fill="#F7F7F7"/>
<path d="M61.2123 7.26507C63.2937 7.26507 64.981 5.63892 64.981 3.63295C64.981 1.62698 63.2937 0.000823975 61.2123 0.000823975C59.1309 0.000823975 57.4436 1.62698 57.4436 3.63295C57.4436 5.63892 59.1309 7.26507 61.2123 7.26507Z" fill="#F7F7F7"/>
<path d="M80.2894 7.26507C82.3708 7.26507 84.0581 5.63892 84.0581 3.63295C84.0581 1.62698 82.3708 0.000823975 80.2894 0.000823975C78.208 0.000823975 76.5207 1.62698 76.5207 3.63295C76.5207 5.63892 78.208 7.26507 80.2894 7.26507Z" fill="#F7F7F7"/>
<path d="M99.3666 7.26507C101.448 7.26507 103.135 5.63892 103.135 3.63295C103.135 1.62698 101.448 0.000823975 99.3666 0.000823975C97.2851 0.000823975 95.5978 1.62698 95.5978 3.63295C95.5978 5.63892 97.2851 7.26507 99.3666 7.26507Z" fill="#F7F7F7"/>
<path d="M118.444 7.26507C120.525 7.26507 122.212 5.63892 122.212 3.63295C122.212 1.62698 120.525 0.000823975 118.444 0.000823975C116.362 0.000823975 114.675 1.62698 114.675 3.63295C114.675 5.63892 116.362 7.26507 118.444 7.26507Z" fill="#F7F7F7"/>
<path d="M137.521 7.26507C139.602 7.26507 141.29 5.63892 141.29 3.63295C141.29 1.62698 139.602 0.000823975 137.521 0.000823975C135.439 0.000823975 133.752 1.62698 133.752 3.63295C133.752 5.63892 135.439 7.26507 137.521 7.26507Z" fill="#F7F7F7"/>
<path d="M156.598 7.26507C158.679 7.26507 160.367 5.63892 160.367 3.63295C160.367 1.62698 158.679 0.000823975 156.598 0.000823975C154.517 0.000823975 152.829 1.62698 152.829 3.63295C152.829 5.63892 154.517 7.26507 156.598 7.26507Z" fill="#F7F7F7"/>
<path d="M175.675 7.26507C177.756 7.26507 179.444 5.63892 179.444 3.63295C179.444 1.62698 177.756 0.000823975 175.675 0.000823975C173.594 0.000823975 171.906 1.62698 171.906 3.63295C171.906 5.63892 173.594 7.26507 175.675 7.26507Z" fill="#F7F7F7"/>
<path d="M3.98087 25.8812C6.06227 25.8812 7.74957 24.255 7.74957 22.249C7.74957 20.2431 6.06227 18.6169 3.98087 18.6169C1.89947 18.6169 0.212158 20.2431 0.212158 22.249C0.212158 24.255 1.89947 25.8812 3.98087 25.8812Z" fill="#F7F7F7"/>
<path d="M23.058 25.8812C25.1394 25.8812 26.8267 24.255 26.8267 22.249C26.8267 20.2431 25.1394 18.6169 23.058 18.6169C20.9766 18.6169 19.2893 20.2431 19.2893 22.249C19.2893 24.255 20.9766 25.8812 23.058 25.8812Z" fill="#F7F7F7"/>
<path d="M42.1351 25.8812C44.2165 25.8812 45.9038 24.255 45.9038 22.249C45.9038 20.2431 44.2165 18.6169 42.1351 18.6169C40.0537 18.6169 38.3664 20.2431 38.3664 22.249C38.3664 24.255 40.0537 25.8812 42.1351 25.8812Z" fill="#F7F7F7"/>
<path d="M61.2123 25.8812C63.2937 25.8812 64.981 24.255 64.981 22.249C64.981 20.2431 63.2937 18.6169 61.2123 18.6169C59.1309 18.6169 57.4436 20.2431 57.4436 22.249C57.4436 24.255 59.1309 25.8812 61.2123 25.8812Z" fill="#F7F7F7"/>
<path d="M80.2894 25.8812C82.3708 25.8812 84.0581 24.255 84.0581 22.249C84.0581 20.2431 82.3708 18.6169 80.2894 18.6169C78.208 18.6169 76.5207 20.2431 76.5207 22.249C76.5207 24.255 78.208 25.8812 80.2894 25.8812Z" fill="#F7F7F7"/>
<path d="M99.3666 25.8812C101.448 25.8812 103.135 24.255 103.135 22.249C103.135 20.2431 101.448 18.6169 99.3666 18.6169C97.2851 18.6169 95.5978 20.2431 95.5978 22.249C95.5978 24.255 97.2851 25.8812 99.3666 25.8812Z" fill="#F7F7F7"/>
<path d="M118.444 25.8812C120.525 25.8812 122.212 24.255 122.212 22.249C122.212 20.2431 120.525 18.6169 118.444 18.6169C116.362 18.6169 114.675 20.2431 114.675 22.249C114.675 24.255 116.362 25.8812 118.444 25.8812Z" fill="#F7F7F7"/>
<path d="M137.521 25.8812C139.602 25.8812 141.29 24.255 141.29 22.249C141.29 20.2431 139.602 18.6169 137.521 18.6169C135.439 18.6169 133.752 20.2431 133.752 22.249C133.752 24.255 135.439 25.8812 137.521 25.8812Z" fill="#F7F7F7"/>
<path d="M156.598 25.8812C158.679 25.8812 160.367 24.255 160.367 22.249C160.367 20.2431 158.679 18.6169 156.598 18.6169C154.517 18.6169 152.829 20.2431 152.829 22.249C152.829 24.255 154.517 25.8812 156.598 25.8812Z" fill="#F7F7F7"/>
<path d="M175.675 25.8812C177.756 25.8812 179.444 24.255 179.444 22.249C179.444 20.2431 177.756 18.6169 175.675 18.6169C173.594 18.6169 171.906 20.2431 171.906 22.249C171.906 24.255 173.594 25.8812 175.675 25.8812Z" fill="#F7F7F7"/>
<path d="M3.98087 44.4977C6.06227 44.4977 7.74957 42.8715 7.74957 40.8656C7.74957 38.8596 6.06227 37.2334 3.98087 37.2334C1.89947 37.2334 0.212158 38.8596 0.212158 40.8656C0.212158 42.8715 1.89947 44.4977 3.98087 44.4977Z" fill="#F7F7F7"/>
<path d="M23.058 44.4977C25.1394 44.4977 26.8267 42.8715 26.8267 40.8656C26.8267 38.8596 25.1394 37.2334 23.058 37.2334C20.9766 37.2334 19.2893 38.8596 19.2893 40.8656C19.2893 42.8715 20.9766 44.4977 23.058 44.4977Z" fill="#F7F7F7"/>
<path d="M42.1351 44.4977C44.2165 44.4977 45.9038 42.8715 45.9038 40.8656C45.9038 38.8596 44.2165 37.2334 42.1351 37.2334C40.0537 37.2334 38.3664 38.8596 38.3664 40.8656C38.3664 42.8715 40.0537 44.4977 42.1351 44.4977Z" fill="#F7F7F7"/>
<path d="M61.2123 44.4977C63.2937 44.4977 64.981 42.8715 64.981 40.8656C64.981 38.8596 63.2937 37.2334 61.2123 37.2334C59.1309 37.2334 57.4436 38.8596 57.4436 40.8656C57.4436 42.8715 59.1309 44.4977 61.2123 44.4977Z" fill="#F7F7F7"/>
<path d="M80.2894 44.4977C82.3708 44.4977 84.0581 42.8715 84.0581 40.8656C84.0581 38.8596 82.3708 37.2334 80.2894 37.2334C78.208 37.2334 76.5207 38.8596 76.5207 40.8656C76.5207 42.8715 78.208 44.4977 80.2894 44.4977Z" fill="#F7F7F7"/>
<path d="M99.3666 44.4977C101.448 44.4977 103.135 42.8715 103.135 40.8656C103.135 38.8596 101.448 37.2334 99.3666 37.2334C97.2851 37.2334 95.5978 38.8596 95.5978 40.8656C95.5978 42.8715 97.2851 44.4977 99.3666 44.4977Z" fill="#F7F7F7"/>
<path d="M118.444 44.4977C120.525 44.4977 122.212 42.8715 122.212 40.8656C122.212 38.8596 120.525 37.2334 118.444 37.2334C116.362 37.2334 114.675 38.8596 114.675 40.8656C114.675 42.8715 116.362 44.4977 118.444 44.4977Z" fill="#F7F7F7"/>
<path d="M137.521 44.4977C139.602 44.4977 141.29 42.8715 141.29 40.8656C141.29 38.8596 139.602 37.2334 137.521 37.2334C135.439 37.2334 133.752 38.8596 133.752 40.8656C133.752 42.8715 135.439 44.4977 137.521 44.4977Z" fill="#F7F7F7"/>
<path d="M156.598 44.4977C158.679 44.4977 160.367 42.8715 160.367 40.8656C160.367 38.8596 158.679 37.2334 156.598 37.2334C154.517 37.2334 152.829 38.8596 152.829 40.8656C152.829 42.8715 154.517 44.4977 156.598 44.4977Z" fill="#F7F7F7"/>
<path d="M175.675 44.4977C177.756 44.4977 179.444 42.8715 179.444 40.8656C179.444 38.8596 177.756 37.2334 175.675 37.2334C173.594 37.2334 171.906 38.8596 171.906 40.8656C171.906 42.8715 173.594 44.4977 175.675 44.4977Z" fill="#F7F7F7"/>
<path d="M3.98087 63.1142C6.06227 63.1142 7.74957 61.4881 7.74957 59.4821C7.74957 57.4761 6.06227 55.85 3.98087 55.85C1.89947 55.85 0.212158 57.4761 0.212158 59.4821C0.212158 61.4881 1.89947 63.1142 3.98087 63.1142Z" fill="#F7F7F7"/>
<path d="M23.058 63.1142C25.1394 63.1142 26.8267 61.4881 26.8267 59.4821C26.8267 57.4761 25.1394 55.85 23.058 55.85C20.9766 55.85 19.2893 57.4761 19.2893 59.4821C19.2893 61.4881 20.9766 63.1142 23.058 63.1142Z" fill="#F7F7F7"/>
<path d="M42.1351 63.1142C44.2165 63.1142 45.9038 61.4881 45.9038 59.4821C45.9038 57.4761 44.2165 55.85 42.1351 55.85C40.0537 55.85 38.3664 57.4761 38.3664 59.4821C38.3664 61.4881 40.0537 63.1142 42.1351 63.1142Z" fill="#F7F7F7"/>
<path d="M61.2123 63.1142C63.2937 63.1142 64.981 61.4881 64.981 59.4821C64.981 57.4761 63.2937 55.85 61.2123 55.85C59.1309 55.85 57.4436 57.4761 57.4436 59.4821C57.4436 61.4881 59.1309 63.1142 61.2123 63.1142Z" fill="#F7F7F7"/>
<path d="M80.2894 63.1142C82.3708 63.1142 84.0581 61.4881 84.0581 59.4821C84.0581 57.4761 82.3708 55.85 80.2894 55.85C78.208 55.85 76.5207 57.4761 76.5207 59.4821C76.5207 61.4881 78.208 63.1142 80.2894 63.1142Z" fill="#F7F7F7"/>
<path d="M99.3666 63.1142C101.448 63.1142 103.135 61.4881 103.135 59.4821C103.135 57.4761 101.448 55.85 99.3666 55.85C97.2851 55.85 95.5978 57.4761 95.5978 59.4821C95.5978 61.4881 97.2851 63.1142 99.3666 63.1142Z" fill="#F7F7F7"/>
<path d="M118.444 63.1142C120.525 63.1142 122.212 61.4881 122.212 59.4821C122.212 57.4761 120.525 55.85 118.444 55.85C116.362 55.85 114.675 57.4761 114.675 59.4821C114.675 61.4881 116.362 63.1142 118.444 63.1142Z" fill="#F7F7F7"/>
<path d="M137.521 63.1142C139.602 63.1142 141.29 61.4881 141.29 59.4821C141.29 57.4761 139.602 55.85 137.521 55.85C135.439 55.85 133.752 57.4761 133.752 59.4821C133.752 61.4881 135.439 63.1142 137.521 63.1142Z" fill="#F7F7F7"/>
<path d="M156.598 63.1142C158.679 63.1142 160.367 61.4881 160.367 59.4821C160.367 57.4761 158.679 55.85 156.598 55.85C154.517 55.85 152.829 57.4761 152.829 59.4821C152.829 61.4881 154.517 63.1142 156.598 63.1142Z" fill="#F7F7F7"/>
<path d="M175.675 63.1142C177.756 63.1142 179.444 61.4881 179.444 59.4821C179.444 57.4761 177.756 55.85 175.675 55.85C173.594 55.85 171.906 57.4761 171.906 59.4821C171.906 61.4881 173.594 63.1142 175.675 63.1142Z" fill="#F7F7F7"/>
<path d="M3.98087 81.7308C6.06227 81.7308 7.74957 80.1046 7.74957 78.0987C7.74957 76.0927 6.06227 74.4665 3.98087 74.4665C1.89947 74.4665 0.212158 76.0927 0.212158 78.0987C0.212158 80.1046 1.89947 81.7308 3.98087 81.7308Z" fill="#F7F7F7"/>
<path d="M23.058 81.7308C25.1394 81.7308 26.8267 80.1046 26.8267 78.0987C26.8267 76.0927 25.1394 74.4665 23.058 74.4665C20.9766 74.4665 19.2893 76.0927 19.2893 78.0987C19.2893 80.1046 20.9766 81.7308 23.058 81.7308Z" fill="#F7F7F7"/>
<path d="M42.1351 81.7308C44.2165 81.7308 45.9038 80.1046 45.9038 78.0987C45.9038 76.0927 44.2165 74.4665 42.1351 74.4665C40.0537 74.4665 38.3664 76.0927 38.3664 78.0987C38.3664 80.1046 40.0537 81.7308 42.1351 81.7308Z" fill="#F7F7F7"/>
<path d="M61.2123 81.7308C63.2937 81.7308 64.981 80.1046 64.981 78.0987C64.981 76.0927 63.2937 74.4665 61.2123 74.4665C59.1309 74.4665 57.4436 76.0927 57.4436 78.0987C57.4436 80.1046 59.1309 81.7308 61.2123 81.7308Z" fill="#F7F7F7"/>
<path d="M80.2894 81.7308C82.3708 81.7308 84.0581 80.1046 84.0581 78.0987C84.0581 76.0927 82.3708 74.4665 80.2894 74.4665C78.208 74.4665 76.5207 76.0927 76.5207 78.0987C76.5207 80.1046 78.208 81.7308 80.2894 81.7308Z" fill="#F7F7F7"/>
<path d="M99.3666 81.7308C101.448 81.7308 103.135 80.1046 103.135 78.0987C103.135 76.0927 101.448 74.4665 99.3666 74.4665C97.2851 74.4665 95.5978 76.0927 95.5978 78.0987C95.5978 80.1046 97.2851 81.7308 99.3666 81.7308Z" fill="#F7F7F7"/>
<path d="M118.444 81.7308C120.525 81.7308 122.212 80.1046 122.212 78.0987C122.212 76.0927 120.525 74.4665 118.444 74.4665C116.362 74.4665 114.675 76.0927 114.675 78.0987C114.675 80.1046 116.362 81.7308 118.444 81.7308Z" fill="#F7F7F7"/>
<path d="M137.521 81.7308C139.602 81.7308 141.29 80.1046 141.29 78.0987C141.29 76.0927 139.602 74.4665 137.521 74.4665C135.439 74.4665 133.752 76.0927 133.752 78.0987C133.752 80.1046 135.439 81.7308 137.521 81.7308Z" fill="#F7F7F7"/>
<path d="M156.598 81.7308C158.679 81.7308 160.367 80.1046 160.367 78.0987C160.367 76.0927 158.679 74.4665 156.598 74.4665C154.517 74.4665 152.829 76.0927 152.829 78.0987C152.829 80.1046 154.517 81.7308 156.598 81.7308Z" fill="#F7F7F7"/>
<path d="M175.675 81.7308C177.756 81.7308 179.444 80.1046 179.444 78.0987C179.444 76.0927 177.756 74.4665 175.675 74.4665C173.594 74.4665 171.906 76.0927 171.906 78.0987C171.906 80.1046 173.594 81.7308 175.675 81.7308Z" fill="#F7F7F7"/>
<path d="M3.98087 100.347C6.06227 100.347 7.74957 98.7212 7.74957 96.7152C7.74957 94.7092 6.06227 93.0831 3.98087 93.0831C1.89947 93.0831 0.212158 94.7092 0.212158 96.7152C0.212158 98.7212 1.89947 100.347 3.98087 100.347Z" fill="#F7F7F7"/>
<path d="M23.058 100.347C25.1394 100.347 26.8267 98.7212 26.8267 96.7152C26.8267 94.7092 25.1394 93.0831 23.058 93.0831C20.9766 93.0831 19.2893 94.7092 19.2893 96.7152C19.2893 98.7212 20.9766 100.347 23.058 100.347Z" fill="#F7F7F7"/>
<path d="M42.1351 100.347C44.2165 100.347 45.9038 98.7212 45.9038 96.7152C45.9038 94.7092 44.2165 93.0831 42.1351 93.0831C40.0537 93.0831 38.3664 94.7092 38.3664 96.7152C38.3664 98.7212 40.0537 100.347 42.1351 100.347Z" fill="#F7F7F7"/>
<path d="M61.2123 100.347C63.2937 100.347 64.981 98.7212 64.981 96.7152C64.981 94.7092 63.2937 93.0831 61.2123 93.0831C59.1309 93.0831 57.4436 94.7092 57.4436 96.7152C57.4436 98.7212 59.1309 100.347 61.2123 100.347Z" fill="#F7F7F7"/>
<path d="M80.2894 100.347C82.3708 100.347 84.0581 98.7212 84.0581 96.7152C84.0581 94.7092 82.3708 93.0831 80.2894 93.0831C78.208 93.0831 76.5207 94.7092 76.5207 96.7152C76.5207 98.7212 78.208 100.347 80.2894 100.347Z" fill="#F7F7F7"/>
<path d="M99.3666 100.347C101.448 100.347 103.135 98.7212 103.135 96.7152C103.135 94.7092 101.448 93.0831 99.3666 93.0831C97.2851 93.0831 95.5978 94.7092 95.5978 96.7152C95.5978 98.7212 97.2851 100.347 99.3666 100.347Z" fill="#F7F7F7"/>
<path d="M118.444 100.347C120.525 100.347 122.212 98.7212 122.212 96.7152C122.212 94.7092 120.525 93.0831 118.444 93.0831C116.362 93.0831 114.675 94.7092 114.675 96.7152C114.675 98.7212 116.362 100.347 118.444 100.347Z" fill="#F7F7F7"/>
<path d="M137.521 100.347C139.602 100.347 141.29 98.7212 141.29 96.7152C141.29 94.7092 139.602 93.0831 137.521 93.0831C135.439 93.0831 133.752 94.7092 133.752 96.7152C133.752 98.7212 135.439 100.347 137.521 100.347Z" fill="#F7F7F7"/>
<path d="M156.598 100.347C158.679 100.347 160.367 98.7212 160.367 96.7152C160.367 94.7092 158.679 93.0831 156.598 93.0831C154.517 93.0831 152.829 94.7092 152.829 96.7152C152.829 98.7212 154.517 100.347 156.598 100.347Z" fill="#F7F7F7"/>
<path d="M175.675 100.347C177.756 100.347 179.444 98.7212 179.444 96.7152C179.444 94.7092 177.756 93.0831 175.675 93.0831C173.594 93.0831 171.906 94.7092 171.906 96.7152C171.906 98.7212 173.594 100.347 175.675 100.347Z" fill="#F7F7F7"/>
<path d="M3.98087 118.964C6.06227 118.964 7.74957 117.338 7.74957 115.332C7.74957 113.326 6.06227 111.7 3.98087 111.7C1.89947 111.7 0.212158 113.326 0.212158 115.332C0.212158 117.338 1.89947 118.964 3.98087 118.964Z" fill="#F7F7F7"/>
<path d="M23.058 118.964C25.1394 118.964 26.8267 117.338 26.8267 115.332C26.8267 113.326 25.1394 111.7 23.058 111.7C20.9766 111.7 19.2893 113.326 19.2893 115.332C19.2893 117.338 20.9766 118.964 23.058 118.964Z" fill="#F7F7F7"/>
<path d="M42.1351 118.964C44.2165 118.964 45.9038 117.338 45.9038 115.332C45.9038 113.326 44.2165 111.7 42.1351 111.7C40.0537 111.7 38.3664 113.326 38.3664 115.332C38.3664 117.338 40.0537 118.964 42.1351 118.964Z" fill="#F7F7F7"/>
<path d="M61.2123 118.964C63.2937 118.964 64.981 117.338 64.981 115.332C64.981 113.326 63.2937 111.7 61.2123 111.7C59.1309 111.7 57.4436 113.326 57.4436 115.332C57.4436 117.338 59.1309 118.964 61.2123 118.964Z" fill="#F7F7F7"/>
<path d="M80.2894 118.964C82.3708 118.964 84.0581 117.338 84.0581 115.332C84.0581 113.326 82.3708 111.7 80.2894 111.7C78.208 111.7 76.5207 113.326 76.5207 115.332C76.5207 117.338 78.208 118.964 80.2894 118.964Z" fill="#F7F7F7"/>
<path d="M99.3666 118.964C101.448 118.964 103.135 117.338 103.135 115.332C103.135 113.326 101.448 111.7 99.3666 111.7C97.2851 111.7 95.5978 113.326 95.5978 115.332C95.5978 117.338 97.2851 118.964 99.3666 118.964Z" fill="#F7F7F7"/>
<path d="M118.444 118.964C120.525 118.964 122.212 117.338 122.212 115.332C122.212 113.326 120.525 111.7 118.444 111.7C116.362 111.7 114.675 113.326 114.675 115.332C114.675 117.338 116.362 118.964 118.444 118.964Z" fill="#F7F7F7"/>
<path d="M137.521 118.964C139.602 118.964 141.29 117.338 141.29 115.332C141.29 113.326 139.602 111.7 137.521 111.7C135.439 111.7 133.752 113.326 133.752 115.332C133.752 117.338 135.439 118.964 137.521 118.964Z" fill="#F7F7F7"/>
<path d="M156.598 118.964C158.679 118.964 160.367 117.338 160.367 115.332C160.367 113.326 158.679 111.7 156.598 111.7C154.517 111.7 152.829 113.326 152.829 115.332C152.829 117.338 154.517 118.964 156.598 118.964Z" fill="#F7F7F7"/>
<path d="M175.675 118.964C177.756 118.964 179.444 117.338 179.444 115.332C179.444 113.326 177.756 111.7 175.675 111.7C173.594 111.7 171.906 113.326 171.906 115.332C171.906 117.338 173.594 118.964 175.675 118.964Z" fill="#F7F7F7"/>
<path d="M3.98087 137.58C6.06227 137.58 7.74957 135.954 7.74957 133.948C7.74957 131.942 6.06227 130.316 3.98087 130.316C1.89947 130.316 0.212158 131.942 0.212158 133.948C0.212158 135.954 1.89947 137.58 3.98087 137.58Z" fill="#F7F7F7"/>
<path d="M23.058 137.58C25.1394 137.58 26.8267 135.954 26.8267 133.948C26.8267 131.942 25.1394 130.316 23.058 130.316C20.9766 130.316 19.2893 131.942 19.2893 133.948C19.2893 135.954 20.9766 137.58 23.058 137.58Z" fill="#F7F7F7"/>
<path d="M42.1351 137.58C44.2165 137.58 45.9038 135.954 45.9038 133.948C45.9038 131.942 44.2165 130.316 42.1351 130.316C40.0537 130.316 38.3664 131.942 38.3664 133.948C38.3664 135.954 40.0537 137.58 42.1351 137.58Z" fill="#F7F7F7"/>
<path d="M61.2123 137.58C63.2937 137.58 64.981 135.954 64.981 133.948C64.981 131.942 63.2937 130.316 61.2123 130.316C59.1309 130.316 57.4436 131.942 57.4436 133.948C57.4436 135.954 59.1309 137.58 61.2123 137.58Z" fill="#F7F7F7"/>
<path d="M80.2894 137.58C82.3708 137.58 84.0581 135.954 84.0581 133.948C84.0581 131.942 82.3708 130.316 80.2894 130.316C78.208 130.316 76.5207 131.942 76.5207 133.948C76.5207 135.954 78.208 137.58 80.2894 137.58Z" fill="#F7F7F7"/>
<path d="M99.3666 137.58C101.448 137.58 103.135 135.954 103.135 133.948C103.135 131.942 101.448 130.316 99.3666 130.316C97.2851 130.316 95.5978 131.942 95.5978 133.948C95.5978 135.954 97.2851 137.58 99.3666 137.58Z" fill="#F7F7F7"/>
<path d="M118.444 137.58C120.525 137.58 122.212 135.954 122.212 133.948C122.212 131.942 120.525 130.316 118.444 130.316C116.362 130.316 114.675 131.942 114.675 133.948C114.675 135.954 116.362 137.58 118.444 137.58Z" fill="#F7F7F7"/>
<path d="M137.521 137.58C139.602 137.58 141.29 135.954 141.29 133.948C141.29 131.942 139.602 130.316 137.521 130.316C135.439 130.316 133.752 131.942 133.752 133.948C133.752 135.954 135.439 137.58 137.521 137.58Z" fill="#F7F7F7"/>
<path d="M156.598 137.58C158.679 137.58 160.367 135.954 160.367 133.948C160.367 131.942 158.679 130.316 156.598 130.316C154.517 130.316 152.829 131.942 152.829 133.948C152.829 135.954 154.517 137.58 156.598 137.58Z" fill="#F7F7F7"/>
<path d="M175.675 137.58C177.756 137.58 179.444 135.954 179.444 133.948C179.444 131.942 177.756 130.316 175.675 130.316C173.594 130.316 171.906 131.942 171.906 133.948C171.906 135.954 173.594 137.58 175.675 137.58Z" fill="#F7F7F7"/>
<path d="M3.98087 156.197C6.06227 156.197 7.74957 154.571 7.74957 152.565C7.74957 150.559 6.06227 148.933 3.98087 148.933C1.89947 148.933 0.212158 150.559 0.212158 152.565C0.212158 154.571 1.89947 156.197 3.98087 156.197Z" fill="#F7F7F7"/>
<path d="M23.058 156.197C25.1394 156.197 26.8267 154.571 26.8267 152.565C26.8267 150.559 25.1394 148.933 23.058 148.933C20.9766 148.933 19.2893 150.559 19.2893 152.565C19.2893 154.571 20.9766 156.197 23.058 156.197Z" fill="#F7F7F7"/>
<path d="M42.1351 156.197C44.2165 156.197 45.9038 154.571 45.9038 152.565C45.9038 150.559 44.2165 148.933 42.1351 148.933C40.0537 148.933 38.3664 150.559 38.3664 152.565C38.3664 154.571 40.0537 156.197 42.1351 156.197Z" fill="#F7F7F7"/>
<path d="M61.2123 156.197C63.2937 156.197 64.981 154.571 64.981 152.565C64.981 150.559 63.2937 148.933 61.2123 148.933C59.1309 148.933 57.4436 150.559 57.4436 152.565C57.4436 154.571 59.1309 156.197 61.2123 156.197Z" fill="#F7F7F7"/>
<path d="M80.2894 156.197C82.3708 156.197 84.0581 154.571 84.0581 152.565C84.0581 150.559 82.3708 148.933 80.2894 148.933C78.208 148.933 76.5207 150.559 76.5207 152.565C76.5207 154.571 78.208 156.197 80.2894 156.197Z" fill="#F7F7F7"/>
<path d="M99.3666 156.197C101.448 156.197 103.135 154.571 103.135 152.565C103.135 150.559 101.448 148.933 99.3666 148.933C97.2851 148.933 95.5978 150.559 95.5978 152.565C95.5978 154.571 97.2851 156.197 99.3666 156.197Z" fill="#F7F7F7"/>
<path d="M118.444 156.197C120.525 156.197 122.212 154.571 122.212 152.565C122.212 150.559 120.525 148.933 118.444 148.933C116.362 148.933 114.675 150.559 114.675 152.565C114.675 154.571 116.362 156.197 118.444 156.197Z" fill="#F7F7F7"/>
<path d="M137.521 156.197C139.602 156.197 141.29 154.571 141.29 152.565C141.29 150.559 139.602 148.933 137.521 148.933C135.439 148.933 133.752 150.559 133.752 152.565C133.752 154.571 135.439 156.197 137.521 156.197Z" fill="#F7F7F7"/>
<path d="M156.598 156.197C158.679 156.197 160.367 154.571 160.367 152.565C160.367 150.559 158.679 148.933 156.598 148.933C154.517 148.933 152.829 150.559 152.829 152.565C152.829 154.571 154.517 156.197 156.598 156.197Z" fill="#F7F7F7"/>
<path d="M175.675 156.197C177.756 156.197 179.444 154.571 179.444 152.565C179.444 150.559 177.756 148.933 175.675 148.933C173.594 148.933 171.906 150.559 171.906 152.565C171.906 154.571 173.594 156.197 175.675 156.197Z" fill="#F7F7F7"/>
<path d="M3.98087 174.813C6.06227 174.813 7.74957 173.187 7.74957 171.181C7.74957 169.175 6.06227 167.549 3.98087 167.549C1.89947 167.549 0.212158 169.175 0.212158 171.181C0.212158 173.187 1.89947 174.813 3.98087 174.813Z" fill="#F7F7F7"/>
<path d="M23.058 174.813C25.1394 174.813 26.8267 173.187 26.8267 171.181C26.8267 169.175 25.1394 167.549 23.058 167.549C20.9766 167.549 19.2893 169.175 19.2893 171.181C19.2893 173.187 20.9766 174.813 23.058 174.813Z" fill="#F7F7F7"/>
<path d="M42.1351 174.813C44.2165 174.813 45.9038 173.187 45.9038 171.181C45.9038 169.175 44.2165 167.549 42.1351 167.549C40.0537 167.549 38.3664 169.175 38.3664 171.181C38.3664 173.187 40.0537 174.813 42.1351 174.813Z" fill="#F7F7F7"/>
<path d="M61.2123 174.813C63.2937 174.813 64.981 173.187 64.981 171.181C64.981 169.175 63.2937 167.549 61.2123 167.549C59.1309 167.549 57.4436 169.175 57.4436 171.181C57.4436 173.187 59.1309 174.813 61.2123 174.813Z" fill="#F7F7F7"/>
<path d="M80.2894 174.813C82.3708 174.813 84.0581 173.187 84.0581 171.181C84.0581 169.175 82.3708 167.549 80.2894 167.549C78.208 167.549 76.5207 169.175 76.5207 171.181C76.5207 173.187 78.208 174.813 80.2894 174.813Z" fill="#F7F7F7"/>
<path d="M99.3666 174.813C101.448 174.813 103.135 173.187 103.135 171.181C103.135 169.175 101.448 167.549 99.3666 167.549C97.2851 167.549 95.5978 169.175 95.5978 171.181C95.5978 173.187 97.2851 174.813 99.3666 174.813Z" fill="#F7F7F7"/>
<path d="M118.444 174.813C120.525 174.813 122.212 173.187 122.212 171.181C122.212 169.175 120.525 167.549 118.444 167.549C116.362 167.549 114.675 169.175 114.675 171.181C114.675 173.187 116.362 174.813 118.444 174.813Z" fill="#F7F7F7"/>
<path d="M137.521 174.813C139.602 174.813 141.29 173.187 141.29 171.181C141.29 169.175 139.602 167.549 137.521 167.549C135.439 167.549 133.752 169.175 133.752 171.181C133.752 173.187 135.439 174.813 137.521 174.813Z" fill="#F7F7F7"/>
<path d="M156.598 174.813C158.679 174.813 160.367 173.187 160.367 171.181C160.367 169.175 158.679 167.549 156.598 167.549C154.517 167.549 152.829 169.175 152.829 171.181C152.829 173.187 154.517 174.813 156.598 174.813Z" fill="#F7F7F7"/>
<path d="M175.675 174.813C177.756 174.813 179.444 173.187 179.444 171.181C179.444 169.175 177.756 167.549 175.675 167.549C173.594 167.549 171.906 169.175 171.906 171.181C171.906 173.187 173.594 174.813 175.675 174.813Z" fill="#F7F7F7"/>
</svg>
