<svg width="350" height="395" viewBox="0 0 350 395" fill="none" xmlns="http://www.w3.org/2000/svg">
<path opacity="0.4" d="M56.7006 395L-3 363.759L86.3273 317L146 348.215L56.7006 395Z" fill="#D6D8E5"/>
<path d="M58.0139 332L9 305.5L58.0139 279L107 305.5L58.0139 332Z" fill="#D6D8E5"/>
<path d="M58 385L9 358.667V306L58 332.333V385Z" fill="#B1B6C4"/>
<path d="M107 358.667L58 385V332.333L107 306V358.667Z" fill="#C4C7D6"/>
<path d="M124.038 341.989C128.302 343.081 132.864 342.574 136.722 340.579C139.789 340.579 156.404 334.145 158.662 339.631C160.641 344.424 153.449 348.885 149.602 349.731C141.238 351.602 134.994 355.447 131.621 356.114C130.336 356.537 128.958 356.665 127.607 356.486C126.256 356.308 124.973 355.828 123.871 355.088C121.473 352.781 121.696 344.732 124.038 341.989Z" fill="#38226D"/>
<path d="M131.621 354.652C134.994 353.986 141.21 350.141 149.602 348.27C152.808 347.552 158.355 344.322 158.913 340.451C159.665 344.886 153.17 348.808 149.602 349.603C141.238 351.474 134.994 355.319 131.621 355.985C130.336 356.409 128.958 356.537 127.607 356.358C126.256 356.18 124.973 355.7 123.871 354.96C123.339 354.443 122.964 353.806 122.783 353.114C124.024 353.987 125.469 354.581 127.004 354.848C128.538 355.115 130.119 355.048 131.621 354.652V354.652Z" fill="#9C73FF"/>
<path d="M94.0975 327.198C98.3619 328.29 102.923 327.783 106.782 325.788C109.848 325.788 126.296 319.354 128.693 324.84C130.673 329.633 123.48 334.094 119.661 334.94C111.298 336.811 105.053 340.656 101.68 341.323C100.395 341.746 99.0175 341.874 97.6666 341.695C96.3157 341.517 95.0329 341.037 93.9302 340.297C91.5327 338.118 91.7836 330.069 94.0975 327.198Z" fill="#38226D"/>
<path d="M101.68 339.99C105.053 339.323 111.27 335.478 119.661 333.607C122.867 332.889 128.415 329.659 128.972 325.788C129.725 330.223 123.23 334.145 119.661 334.94C111.298 336.811 105.053 340.656 101.68 341.323C100.395 341.746 99.0175 341.874 97.6666 341.695C96.3157 341.517 95.033 341.037 93.9302 340.297C93.405 339.786 93.0308 339.159 92.843 338.477C94.0877 339.342 95.5341 339.929 97.0677 340.191C98.6014 340.454 100.18 340.385 101.68 339.99V339.99Z" fill="#9C73FF"/>
<path d="M47.4583 308.203C60.4214 313.33 72.5481 314.253 82.6119 309.331L92.9266 303.845C93.5399 316.099 94.1253 327.865 94.1253 327.865C94.1253 327.865 102.043 333.376 108.064 328.454C108.064 328.454 109.346 311.279 110.657 294.361L121.473 288.619C121.213 289.522 121.072 290.452 121.055 291.387C121.055 294.591 123.564 342.348 123.564 342.348C123.564 342.348 131.537 346.706 137.698 341.81C137.698 341.81 141.852 286.465 142.799 277.724C143.859 267.778 131.872 262.882 124.261 265.42L112.664 269.393L113.221 263.241C114.309 253.295 102.293 248.398 94.7107 250.936C87.7971 253.269 41.0744 269.367 41.0744 269.367C41.3651 273.503 41.9142 277.62 42.7191 281.697L24.2642 280.262C23.2885 296.129 34.5231 302.974 47.4583 308.203ZM79.6848 280.698L92.0345 274.161C91.8287 274.961 91.6981 275.776 91.6442 276.596L79.6848 280.698Z" fill="#8C50FF"/>
<path d="M14.2841 231.762C14.2841 231.762 15.7894 252.859 18.8002 255.909C21.811 258.96 32.0142 261.036 32.0142 261.036L39.8478 272.777C39.8478 272.777 32.6832 235.146 31.1221 234.325C29.5609 233.505 14.2841 231.762 14.2841 231.762Z" fill="#FFCEA9"/>
<path d="M29.3658 208.306C27.4661 207.491 25.3082 207.34 23.2964 207.883C21.2847 208.426 19.5572 209.624 18.4378 211.254C15.6501 215.638 12.5557 230.736 12.2769 233.3C13.4356 234.739 14.9705 235.885 16.7395 236.634C18.5084 237.382 20.4542 237.708 22.3964 237.581L29.3658 208.306Z" fill="#EDEDED"/>
<path d="M32.1257 208.691C36.0843 208.87 39.0393 209.793 39.5411 208.691C39.9661 206.813 40.2641 204.912 40.4332 203C39.9872 201.923 39.5969 200.796 39.5969 200.796C34.6068 197.976 33.0457 193.105 32.3766 187.261C31.2615 177.392 37.06 168.778 47.765 167.753C57.8567 166.779 65.2721 173.29 67.2793 182.236C68.3386 186.645 70.4573 195.053 67.5859 202.257C65.9969 206.307 63.934 209.537 62.0104 210.152C60.0133 210.114 58.0207 209.959 56.0446 209.691V209.691C56.0446 209.691 55.5149 212.434 55.1525 214.177C54.7901 215.92 54.9016 216.868 58.7209 219.021C62.5401 221.175 52.9781 225.609 46.7335 225.174C40.489 224.738 33.4638 221.277 31.5403 217.483C29.2264 213.331 29.3937 208.46 32.1257 208.691Z" fill="#FFCEA9"/>
<path d="M132.652 273.161C132.65 273.681 132.499 274.191 132.216 274.641C131.932 275.091 131.525 275.465 131.035 275.724L100.788 291.772C100.297 292.035 99.7394 292.174 99.1712 292.174C98.6029 292.174 98.0449 292.035 97.5543 291.772L55.1804 269.265C54.6869 269.009 54.2767 268.636 53.9924 268.185C53.7081 267.735 53.56 267.222 53.5635 266.701V266.496L132.652 273.161Z" fill="#E5E5E5"/>
<path d="M131.035 275.725L100.788 291.772C100.301 292.044 99.7411 292.186 99.1712 292.182V273.161H132.624C132.625 273.679 132.479 274.187 132.2 274.637C131.921 275.086 131.52 275.461 131.035 275.725V275.725Z" fill="#E5E5E5"/>
<path d="M100.314 290.31C99.9728 290.498 99.5826 290.597 99.1851 290.597C98.7875 290.597 98.3974 290.498 98.056 290.31L53.9816 266.932C53.4241 266.624 53.4241 266.137 53.9816 265.855L86.4311 248.604L132.652 273.161L100.314 290.31Z" fill="#F4F4F4"/>
<path d="M72.0742 273.161L72.2972 273.264L86.4311 280.774L94.1811 276.647L94.4041 276.545L80.0472 268.931L72.0742 273.161Z" fill="#BFBFBF"/>
<path d="M72.2972 273.264L86.4311 280.774L94.1811 276.647L80.0472 269.162L72.2972 273.264Z" fill="#E5E5E5"/>
<path d="M120.665 274.366L122.7 275.443C122.798 275.492 122.908 275.518 123.02 275.518C123.132 275.518 123.243 275.492 123.341 275.443L125.292 274.417C125.488 274.417 125.515 274.161 125.292 274.084L123.257 272.982C123.157 272.938 123.048 272.916 122.937 272.916C122.826 272.916 122.716 272.938 122.616 272.982L120.665 274.033C120.525 274.135 120.498 274.289 120.665 274.366Z" fill="#3A2C6D"/>
<path d="M117.793 272.777L119.828 273.853C119.927 273.903 120.037 273.928 120.149 273.928C120.261 273.928 120.371 273.903 120.47 273.853L122.421 272.828C122.616 272.828 122.616 272.572 122.421 272.495L120.386 271.418C120.288 271.369 120.177 271.343 120.065 271.343C119.953 271.343 119.843 271.369 119.745 271.418L117.793 272.443C117.654 272.597 117.626 272.777 117.793 272.777Z" fill="#3A2C6D"/>
<path d="M114.894 271.315L116.929 272.392C117.034 272.436 117.148 272.459 117.264 272.459C117.379 272.459 117.493 272.436 117.598 272.392L119.522 271.367C119.717 271.367 119.745 271.11 119.522 271.008L117.487 269.931C117.388 269.882 117.278 269.856 117.166 269.856C117.054 269.856 116.944 269.882 116.846 269.931L114.894 270.957C114.755 271.059 114.727 271.213 114.894 271.315Z" fill="#3A2C6D"/>
<path d="M112.023 269.777L114.058 270.854C114.158 270.897 114.268 270.92 114.378 270.92C114.489 270.92 114.599 270.897 114.699 270.854L116.65 269.829C116.846 269.829 116.873 269.572 116.65 269.47L114.615 268.393C114.51 268.349 114.396 268.327 114.281 268.327C114.165 268.327 114.051 268.349 113.946 268.393L112.023 269.418C111.883 269.521 111.855 269.675 112.023 269.777Z" fill="#3A2C6D"/>
<path d="M109.123 268.239L111.186 269.316C111.285 269.365 111.395 269.391 111.507 269.391C111.619 269.391 111.729 269.365 111.828 269.316L113.751 268.291C113.946 268.291 113.974 268.034 113.751 267.957L111.716 266.855C111.616 266.812 111.506 266.789 111.395 266.789C111.285 266.789 111.175 266.812 111.075 266.855L109.123 267.906C108.984 268.009 108.956 268.162 109.123 268.239Z" fill="#3A2C6D"/>
<path d="M106.252 266.701L108.287 267.804C108.387 267.847 108.497 267.869 108.608 267.869C108.719 267.869 108.828 267.847 108.928 267.804L110.88 266.753C111.075 266.753 111.103 266.496 110.88 266.419L108.845 265.343C108.741 265.293 108.627 265.267 108.51 265.267C108.394 265.267 108.279 265.293 108.176 265.343L106.252 266.368C106.113 266.471 106.085 266.624 106.252 266.701Z" fill="#3A2C6D"/>
<path d="M103.381 265.086L105.416 266.163C105.516 266.206 105.625 266.229 105.736 266.229C105.847 266.229 105.957 266.206 106.057 266.163L108.008 265.138C108.203 265.138 108.203 264.881 108.008 264.779L105.973 263.702C105.873 263.659 105.764 263.636 105.653 263.636C105.542 263.636 105.432 263.659 105.332 263.702L103.381 264.727C103.213 264.933 103.213 265.086 103.381 265.086Z" fill="#3A2C6D"/>
<path d="M100.481 263.651L102.516 264.727C102.615 264.777 102.725 264.803 102.837 264.803C102.949 264.803 103.059 264.777 103.158 264.727L105.109 263.702C105.304 263.702 105.332 263.446 105.109 263.369L103.074 262.267C102.974 262.223 102.864 262.201 102.753 262.201C102.643 262.201 102.533 262.223 102.433 262.267L100.481 263.318C100.342 263.42 100.314 263.574 100.481 263.651Z" fill="#3A2C6D"/>
<path d="M97.61 262.113L99.6451 263.189C99.7434 263.239 99.8537 263.265 99.9657 263.265C100.078 263.265 100.188 263.239 100.286 263.189L102.238 262.164C102.433 262.164 102.433 261.908 102.238 261.831L100.147 260.728C100.049 260.679 99.9383 260.653 99.8263 260.653C99.7143 260.653 99.604 260.679 99.5057 260.728L97.5543 261.754C97.3591 261.882 97.3591 262.036 97.61 262.113Z" fill="#3A2C6D"/>
<path d="M94.7107 260.6L96.7458 261.677C96.8509 261.721 96.9649 261.744 97.0803 261.744C97.1957 261.744 97.3098 261.721 97.4149 261.677L99.3384 260.652C99.5335 260.652 99.5614 260.395 99.3384 260.293L97.3591 259.191C97.2608 259.141 97.1505 259.115 97.0385 259.115C96.9265 259.115 96.8163 259.141 96.7179 259.191L94.7665 260.216C94.5713 260.344 94.5713 260.498 94.7107 260.6Z" fill="#3A2C6D"/>
<path d="M91.7836 259.062L93.8187 260.139C93.919 260.182 94.0285 260.205 94.1393 260.205C94.2501 260.205 94.3596 260.182 94.4599 260.139L96.4113 259.114C96.6064 259.114 96.6343 258.857 96.4113 258.755L94.5714 257.652C94.4663 257.608 94.3523 257.586 94.2369 257.586C94.1215 257.586 94.0074 257.608 93.9023 257.652L91.9788 258.678C91.7836 258.806 91.7836 258.96 91.7836 259.062Z" fill="#3A2C6D"/>
<path d="M88.9959 257.524L91.0588 258.601C91.1571 258.65 91.2674 258.676 91.3794 258.676C91.4914 258.676 91.6016 258.65 91.7 258.601L93.6514 257.576C93.8187 257.576 93.8465 257.319 93.6514 257.242L91.6163 256.14C91.5161 256.097 91.4066 256.074 91.2958 256.074C91.1849 256.074 91.0754 256.097 90.9752 256.14L89.0237 257.191C88.8007 257.396 88.8007 257.396 88.9959 257.524Z" fill="#3A2C6D"/>
<path d="M86.2081 255.986L88.2432 257.088C88.3434 257.132 88.4529 257.154 88.5638 257.154C88.6746 257.154 88.7841 257.132 88.8843 257.088L90.8358 256.037C91.0309 256.037 91.0588 255.781 90.8358 255.704L88.8007 254.628C88.6974 254.578 88.5827 254.552 88.4662 254.552C88.3497 254.552 88.235 254.578 88.1317 254.628L86.2081 255.653C85.9293 255.755 85.9015 255.909 86.2081 255.986Z" fill="#3A2C6D"/>
<path d="M81.8035 253.73L85.2324 255.55C85.3327 255.594 85.4422 255.616 85.553 255.616C85.6638 255.616 85.7733 255.594 85.8736 255.55L87.825 254.525C88.0202 254.525 88.0202 254.269 87.825 254.166L84.424 252.269C84.3237 252.226 84.2142 252.203 84.1034 252.203C83.9925 252.203 83.8831 252.226 83.7828 252.269L81.8314 253.32C81.8021 253.318 81.7727 253.322 81.7449 253.331C81.7172 253.34 81.6916 253.353 81.6696 253.371C81.6476 253.389 81.6296 253.411 81.6167 253.435C81.6038 253.459 81.5962 253.485 81.5944 253.512C81.5926 253.539 81.5965 253.566 81.606 253.592C81.6156 253.617 81.6304 253.641 81.6499 253.661C81.6693 253.681 81.6928 253.698 81.7192 253.71C81.7455 253.722 81.7742 253.729 81.8035 253.73V253.73Z" fill="#3A2C6D"/>
<path d="M113.584 273.571L115.647 274.648C115.745 274.697 115.855 274.723 115.967 274.723C116.079 274.723 116.19 274.697 116.288 274.648L118.239 273.623C118.407 273.623 118.435 273.366 118.239 273.289L116.204 272.213C116.106 272.163 115.996 272.137 115.884 272.137C115.772 272.137 115.661 272.163 115.563 272.213L113.612 273.238C113.444 273.341 113.444 273.494 113.584 273.571Z" fill="#3A2C6D"/>
<path d="M110.712 272.033L112.748 273.136C112.848 273.179 112.957 273.201 113.068 273.201C113.179 273.201 113.288 273.179 113.389 273.136L115.34 272.084C115.535 272.084 115.563 271.828 115.34 271.751L113.305 270.675C113.202 270.625 113.087 270.599 112.971 270.599C112.854 270.599 112.739 270.625 112.636 270.675L110.712 271.7C110.573 271.802 110.545 271.956 110.712 272.033Z" fill="#3A2C6D"/>
<path d="M107.813 270.521L109.848 271.597C109.953 271.641 110.067 271.664 110.183 271.664C110.298 271.664 110.412 271.641 110.517 271.597L112.441 270.572C112.636 270.572 112.664 270.316 112.441 270.213L110.406 269.137C110.306 269.093 110.196 269.071 110.085 269.071C109.974 269.071 109.865 269.093 109.765 269.137L107.813 270.162C107.674 270.213 107.646 270.418 107.813 270.521Z" fill="#3A2C6D"/>
<path d="M104.942 268.983L106.977 270.059C107.077 270.103 107.187 270.125 107.297 270.125C107.408 270.125 107.518 270.103 107.618 270.059L109.57 269.034C109.765 269.034 109.765 268.778 109.57 268.675L107.534 267.599C107.434 267.555 107.325 267.533 107.214 267.533C107.103 267.533 106.994 267.555 106.893 267.599L104.942 268.624C104.775 268.726 104.775 268.88 104.942 268.983Z" fill="#3A2C6D"/>
<path d="M102.07 267.445L104.105 268.547C104.206 268.59 104.315 268.613 104.426 268.613C104.537 268.613 104.646 268.59 104.747 268.547L106.698 267.496C106.893 267.496 106.921 267.24 106.698 267.163L104.663 266.086C104.56 266.037 104.445 266.011 104.328 266.011C104.212 266.011 104.097 266.037 103.994 266.086L102.07 267.111C101.931 267.214 101.903 267.368 102.07 267.445Z" fill="#3A2C6D"/>
<path d="M99.1712 265.932L101.206 267.009C101.311 267.053 101.425 267.076 101.541 267.076C101.656 267.076 101.77 267.053 101.875 267.009L103.799 265.984C103.994 265.984 104.022 265.727 103.799 265.625L101.764 264.548C101.664 264.505 101.554 264.482 101.443 264.482C101.332 264.482 101.223 264.505 101.123 264.548L99.1712 265.573C99.0318 265.676 99.0039 265.83 99.1712 265.932Z" fill="#3A2C6D"/>
<path d="M96.2998 264.394L98.3349 265.471C98.4351 265.514 98.5446 265.537 98.6554 265.537C98.7663 265.537 98.8758 265.514 98.976 265.471L100.927 264.445C101.123 264.445 101.123 264.189 100.927 264.087L98.8924 263.01C98.7921 262.967 98.6827 262.944 98.5718 262.944C98.461 262.944 98.3515 262.967 98.2512 263.01L96.2998 264.035C96.1325 264.138 96.1325 264.292 96.2998 264.394Z" fill="#3A2C6D"/>
<path d="M93.4005 262.856L95.4356 263.933C95.5339 263.982 95.6441 264.008 95.7562 264.008C95.8682 264.008 95.9784 263.982 96.0768 263.933L98.0282 262.907C98.2233 262.907 98.2512 262.651 98.0282 262.574L95.9931 261.472C95.8881 261.428 95.774 261.405 95.6586 261.405C95.5432 261.405 95.4291 261.428 95.3241 261.472L93.4005 262.523C93.2611 262.523 93.2333 262.779 93.4005 262.856Z" fill="#3A2C6D"/>
<path d="M90.5013 261.318L92.5642 262.395C92.6625 262.444 92.7728 262.47 92.8848 262.47C92.9968 262.47 93.107 262.444 93.2054 262.395L95.1568 261.369C95.3241 261.369 95.352 261.113 95.1568 261.036L93.1217 259.96C93.0234 259.91 92.9132 259.884 92.8012 259.884C92.6891 259.884 92.5789 259.91 92.4806 259.96L90.5291 260.985C90.3619 261.087 90.3619 261.241 90.5013 261.318Z" fill="#3A2C6D"/>
<path d="M87.6299 259.78L89.6649 260.882C89.7652 260.926 89.8747 260.948 89.9855 260.948C90.0964 260.948 90.2058 260.926 90.3061 260.882L92.2575 259.831C92.4527 259.831 92.4805 259.575 92.2575 259.498L90.2225 258.421C90.1192 258.372 90.0044 258.346 89.8879 258.346C89.7715 258.346 89.6567 258.372 89.5534 258.421L87.6299 259.447C87.4905 259.549 87.4626 259.703 87.6299 259.78Z" fill="#3A2C6D"/>
<path d="M84.7306 258.268L86.7657 259.344C86.8707 259.388 86.9848 259.411 87.1002 259.411C87.2156 259.411 87.3296 259.388 87.4347 259.344L89.3583 258.319C89.5534 258.319 89.5813 258.063 89.3583 257.96L87.3232 256.883C87.2229 256.84 87.1134 256.817 87.0026 256.817C86.8918 256.817 86.7823 256.84 86.682 256.883L84.7306 257.909C84.5912 258.011 84.5633 258.165 84.7306 258.268Z" fill="#3A2C6D"/>
<path d="M81.8592 256.73L83.8943 257.806C83.9945 257.85 84.104 257.872 84.2149 257.872C84.3257 257.872 84.4352 257.85 84.5354 257.806L86.4869 256.781C86.682 256.781 86.682 256.524 86.4869 256.422L84.4518 255.345C84.3515 255.302 84.2421 255.279 84.1312 255.279C84.0204 255.279 83.9109 255.302 83.8106 255.345L81.8592 256.371C81.6919 256.473 81.6919 256.627 81.8592 256.73Z" fill="#3A2C6D"/>
<path d="M116.483 275.109L119.912 276.929C120.012 276.973 120.122 276.995 120.233 276.995C120.343 276.995 120.453 276.973 120.553 276.929L122.505 275.904C122.7 275.904 122.728 275.648 122.505 275.545L119.076 273.725C118.971 273.681 118.857 273.658 118.741 273.658C118.626 273.658 118.512 273.681 118.407 273.725L116.483 274.776C116.344 274.879 116.316 275.032 116.483 275.109Z" fill="#3A2C6D"/>
<path d="M81.6083 253.807L83.6434 254.884C83.8106 254.884 83.8106 255.115 83.6434 255.217L81.5804 256.294C81.4924 256.344 81.3911 256.37 81.2877 256.37C81.1843 256.37 81.083 256.344 80.995 256.294H80.8277C80.7408 256.255 80.6455 256.235 80.549 256.235C80.4524 256.235 80.3571 256.255 80.2702 256.294L78.0957 257.447C77.9988 257.485 77.8945 257.505 77.7891 257.505C77.6837 257.505 77.5794 257.485 77.4824 257.447L76.2001 256.755C76.0328 256.755 76.0328 256.524 76.2001 256.422L78.2351 255.345L78.6533 255.14L78.9599 254.961L79.2666 254.807L80.995 253.884C81.0806 253.822 81.1826 253.783 81.2903 253.769C81.3981 253.756 81.5078 253.769 81.6083 253.807V253.807Z" fill="#3A2C6D"/>
<path d="M109.486 280.287L111.521 281.364C111.619 281.413 111.729 281.439 111.841 281.439C111.954 281.439 112.064 281.413 112.162 281.364L114.114 280.339C114.309 280.339 114.309 280.082 114.114 280.005L112.078 278.929C111.98 278.879 111.87 278.854 111.758 278.854C111.646 278.854 111.536 278.879 111.437 278.929L109.486 279.954C109.346 280.057 109.319 280.211 109.486 280.287Z" fill="#3A2C6D"/>
<path d="M106.614 278.775L108.65 279.852C108.75 279.895 108.859 279.918 108.97 279.918C109.081 279.918 109.19 279.895 109.291 279.852L111.242 278.826C111.437 278.826 111.437 278.57 111.242 278.467L109.207 277.391C109.107 277.347 108.997 277.325 108.886 277.325C108.776 277.325 108.666 277.347 108.566 277.391L106.614 278.416C106.447 278.519 106.447 278.672 106.614 278.775Z" fill="#3A2C6D"/>
<path d="M103.715 277.237L105.778 278.314C105.876 278.363 105.987 278.389 106.099 278.389C106.211 278.389 106.321 278.363 106.419 278.314L108.371 277.288C108.538 277.288 108.566 277.032 108.371 276.955L106.336 275.878C106.237 275.829 106.127 275.803 106.015 275.803C105.903 275.803 105.793 275.829 105.695 275.878L103.743 276.929C103.576 277.006 103.576 277.16 103.715 277.237Z" fill="#3A2C6D"/>
<path d="M79.2387 264.24L81.2738 265.317C81.3771 265.366 81.4919 265.392 81.6083 265.392C81.7248 265.392 81.8395 265.366 81.9429 265.317L83.8664 264.292C84.0615 264.292 84.0894 264.035 83.8664 263.958L81.8313 262.856C81.7311 262.813 81.6216 262.79 81.5108 262.79C81.3999 262.79 81.2904 262.813 81.1902 262.856L79.2387 263.907C79.0993 264.01 79.0715 264.163 79.2387 264.24Z" fill="#3A2C6D"/>
<path d="M76.3673 262.728L78.4024 263.805C78.5027 263.848 78.6122 263.871 78.723 263.871C78.8338 263.871 78.9433 263.848 79.0436 263.805L80.995 262.754C81.1902 262.754 81.218 262.523 80.995 262.42L78.96 261.344C78.8566 261.294 78.7419 261.268 78.6254 261.268C78.509 261.268 78.3942 261.294 78.2909 261.344L76.3673 262.369C76.228 262.523 76.2001 262.523 76.3673 262.728Z" fill="#3A2C6D"/>
<path d="M73.496 261.19L75.531 262.266C75.6294 262.316 75.7396 262.342 75.8516 262.342C75.9637 262.342 76.0739 262.316 76.1722 262.266L78.1237 261.241C78.3188 261.241 78.3467 260.985 78.1237 260.908L76.0886 259.806C75.9835 259.762 75.8695 259.739 75.7541 259.739C75.6387 259.739 75.5246 259.762 75.4195 259.806L73.496 260.857C73.3566 260.959 73.3287 261.113 73.496 261.19Z" fill="#3A2C6D"/>
<path d="M70.6246 259.652L72.6596 260.754C72.7599 260.798 72.8694 260.82 72.9802 260.82C73.091 260.82 73.2005 260.798 73.3008 260.754L75.2522 259.703C75.4474 259.703 75.4474 259.447 75.2522 259.37L73.1893 258.293C73.091 258.244 72.9807 258.218 72.8687 258.218C72.7567 258.218 72.6464 258.244 72.5481 258.293L70.5967 259.319C70.4852 259.421 70.4573 259.575 70.6246 259.652Z" fill="#3A2C6D"/>
<path d="M100.147 275.34L102.935 276.827C103.04 276.871 103.154 276.893 103.269 276.893C103.385 276.893 103.499 276.871 103.604 276.827L105.527 275.801C105.722 275.801 105.75 275.545 105.527 275.443L102.74 273.981C102.641 273.932 102.531 273.906 102.419 273.906C102.307 273.906 102.197 273.932 102.098 273.981L100.147 275.007C99.9796 275.084 99.9517 275.34 100.147 275.34Z" fill="#3A2C6D"/>
<path d="M82.1101 265.778L84.8979 267.24C84.9962 267.289 85.1065 267.315 85.2185 267.315C85.3305 267.315 85.4407 267.289 85.5391 267.24L87.4905 266.214C87.6856 266.214 87.7135 265.958 87.4905 265.855L84.7027 264.394C84.6025 264.351 84.493 264.328 84.3822 264.328C84.2713 264.328 84.1618 264.351 84.0616 264.394L82.1101 265.42C81.9708 265.522 81.9429 265.676 82.1101 265.778Z" fill="#3A2C6D"/>
<path d="M85.7342 267.65L99.2827 274.853C99.3829 274.896 99.4924 274.919 99.6033 274.919C99.7141 274.919 99.8236 274.896 99.9238 274.853L101.875 273.828C102.07 273.828 102.07 273.571 101.875 273.469L88.3547 266.291C88.2514 266.242 88.1366 266.216 88.0202 266.216C87.9037 266.216 87.7889 266.242 87.6856 266.291L85.7621 267.316C85.5948 267.445 85.5669 267.65 85.7342 267.65Z" fill="#3A2C6D"/>
<path d="M110.016 274.648L112.051 275.725C112.149 275.774 112.259 275.8 112.371 275.8C112.483 275.8 112.593 275.774 112.692 275.725L114.643 274.699C114.838 274.699 114.866 274.443 114.643 274.34L112.608 273.264C112.503 273.22 112.389 273.197 112.274 273.197C112.158 273.197 112.044 273.22 111.939 273.264L110.016 274.289C109.876 274.392 109.848 274.545 110.016 274.648Z" fill="#3A2C6D"/>
<path d="M107.144 273.11L109.179 274.186C109.278 274.236 109.388 274.262 109.5 274.262C109.612 274.262 109.722 274.236 109.82 274.186L111.772 273.161C111.967 273.161 111.967 272.905 111.772 272.828L109.737 271.751C109.638 271.702 109.528 271.676 109.416 271.676C109.304 271.676 109.194 271.702 109.096 271.751L107.144 272.777C107.005 272.777 106.977 273.033 107.144 273.11Z" fill="#3A2C6D"/>
<path d="M104.245 271.597L106.308 272.674C106.408 272.717 106.518 272.74 106.628 272.74C106.739 272.74 106.849 272.717 106.949 272.674L108.9 271.649C109.068 271.649 109.096 271.392 108.9 271.29L106.865 270.213C106.765 270.17 106.656 270.147 106.545 270.147C106.434 270.147 106.324 270.17 106.224 270.213L104.273 271.239C104.105 271.341 104.105 271.495 104.245 271.597Z" fill="#3A2C6D"/>
<path d="M101.373 270.059L103.409 271.136C103.507 271.185 103.617 271.211 103.729 271.211C103.841 271.211 103.951 271.185 104.05 271.136L106.001 270.111C106.196 270.111 106.224 269.854 106.001 269.752L103.966 268.675C103.866 268.632 103.756 268.609 103.646 268.609C103.535 268.609 103.425 268.632 103.325 268.675L101.373 269.726C101.234 269.829 101.206 269.982 101.373 270.059Z" fill="#3A2C6D"/>
<path d="M98.5021 268.521L100.537 269.598C100.636 269.647 100.746 269.673 100.858 269.673C100.97 269.673 101.08 269.647 101.178 269.598L103.13 268.547C103.325 268.547 103.353 268.291 103.13 268.214L101.095 267.137C100.991 267.088 100.877 267.062 100.76 267.062C100.644 267.062 100.529 267.088 100.426 267.137L98.5021 268.162C98.3627 268.291 98.3349 268.444 98.5021 268.521Z" fill="#3A2C6D"/>
<path d="M95.6307 267.009L97.6658 268.086C97.7661 268.129 97.8755 268.151 97.9864 268.151C98.0972 268.151 98.2067 268.129 98.307 268.086L100.258 267.06C100.426 267.06 100.454 266.804 100.258 266.701L98.2233 265.625C98.123 265.581 98.0136 265.559 97.9027 265.559C97.7919 265.559 97.6824 265.581 97.5821 265.625L95.6307 266.65C95.4635 266.753 95.4635 266.906 95.6307 267.009Z" fill="#3A2C6D"/>
<path d="M92.7315 265.471L94.7665 266.547C94.8698 266.597 94.9846 266.623 95.101 266.623C95.2175 266.623 95.3323 266.597 95.4356 266.547L97.3591 265.522C97.5543 265.522 97.5822 265.266 97.3591 265.189L95.3241 264.087C95.2238 264.043 95.1143 264.021 95.0035 264.021C94.8926 264.021 94.7832 264.043 94.6829 264.087L92.7315 265.138C92.5921 265.24 92.5642 265.394 92.7315 265.471Z" fill="#3A2C6D"/>
<path d="M89.8601 263.933L91.7836 265.086C91.8839 265.13 91.9934 265.152 92.1042 265.152C92.215 265.152 92.3245 265.13 92.4248 265.086L94.3762 264.035C94.5714 264.035 94.5992 263.779 94.3762 263.702L92.3412 262.625C92.2378 262.576 92.1231 262.55 92.0066 262.55C91.8902 262.55 91.7754 262.576 91.6721 262.625L89.7486 263.651C89.7207 263.702 89.6928 263.856 89.8601 263.933Z" fill="#3A2C6D"/>
<path d="M86.9887 262.523L89.0238 263.6C89.124 263.643 89.2335 263.665 89.3444 263.665C89.4552 263.665 89.5647 263.643 89.6649 263.6L91.6164 262.574C91.8115 262.574 91.8115 262.318 91.6164 262.215L89.5813 261.139C89.481 261.095 89.3716 261.073 89.2607 261.073C89.1499 261.073 89.0404 261.095 88.9401 261.139L86.9887 262.164C86.8214 262.164 86.8214 262.318 86.9887 262.523Z" fill="#3A2C6D"/>
<path d="M84.0894 260.882L86.1245 261.959C86.2278 262.008 86.3426 262.034 86.459 262.034C86.5755 262.034 86.6902 262.008 86.7936 261.959L88.7171 260.934C88.9123 260.934 88.9401 260.677 88.7171 260.6L86.682 259.498C86.5818 259.455 86.4723 259.432 86.3615 259.432C86.2506 259.432 86.1412 259.455 86.0409 259.498L84.0894 260.549C83.9501 260.652 83.9222 260.805 84.0894 260.882Z" fill="#3A2C6D"/>
<path d="M81.218 259.344L83.2531 260.446C83.3534 260.49 83.4629 260.512 83.5737 260.512C83.6845 260.512 83.794 260.49 83.8943 260.446L85.8457 259.396C86.0409 259.396 86.0687 259.139 85.8457 259.062L83.8106 257.986C83.7073 257.936 83.5926 257.91 83.4761 257.91C83.3597 257.91 83.2449 257.936 83.1416 257.986L81.218 259.011C81.0786 259.114 81.0508 259.267 81.218 259.344Z" fill="#3A2C6D"/>
<path d="M78.3466 257.832L80.3817 258.908C80.482 258.952 80.5914 258.974 80.7023 258.974C80.8131 258.974 80.9226 258.952 81.0229 258.908L82.9743 257.883C83.1694 257.883 83.1694 257.627 82.9743 257.524L80.9392 256.448C80.839 256.404 80.7295 256.382 80.6187 256.382C80.5078 256.382 80.3983 256.404 80.2981 256.448L78.3466 257.473C78.1794 257.575 78.1794 257.729 78.3466 257.832Z" fill="#3A2C6D"/>
<path d="M112.887 276.186L117.124 278.416C117.225 278.46 117.334 278.482 117.445 278.482C117.556 278.482 117.665 278.46 117.765 278.416L119.689 277.391C119.884 277.391 119.912 277.134 119.689 277.032L115.48 274.802C115.381 274.752 115.271 274.726 115.159 274.726C115.047 274.726 114.937 274.752 114.838 274.802L112.887 275.827C112.748 275.93 112.72 276.083 112.887 276.186Z" fill="#3A2C6D"/>
<path d="M108.65 276.878L110.685 277.98C110.785 278.024 110.894 278.046 111.005 278.046C111.116 278.046 111.225 278.024 111.326 277.98L113.277 276.929C113.472 276.929 113.5 276.673 113.277 276.596L111.242 275.519C111.144 275.47 111.034 275.444 110.922 275.444C110.81 275.444 110.699 275.47 110.601 275.519L108.65 276.545C108.51 276.647 108.51 276.801 108.65 276.878Z" fill="#3A2C6D"/>
<path d="M105.722 275.34L107.757 276.417C107.858 276.46 107.967 276.483 108.078 276.483C108.189 276.483 108.298 276.46 108.399 276.417L110.35 275.391C110.545 275.391 110.573 275.135 110.35 275.032L108.287 273.956C108.187 273.912 108.077 273.89 107.966 273.89C107.856 273.89 107.746 273.912 107.646 273.956L105.722 274.981C105.722 275.109 105.722 275.34 105.722 275.34Z" fill="#3A2C6D"/>
<path d="M102.935 273.828L104.97 274.904C105.068 274.954 105.178 274.98 105.29 274.98C105.402 274.98 105.513 274.954 105.611 274.904L107.562 273.879C107.73 273.879 107.757 273.623 107.562 273.546L105.527 272.443C105.427 272.4 105.317 272.377 105.207 272.377C105.096 272.377 104.986 272.4 104.886 272.443L102.935 273.494C102.739 273.597 102.739 273.751 102.935 273.828Z" fill="#3A2C6D"/>
<path d="M100.147 272.29L102.182 273.392C102.287 273.436 102.401 273.458 102.516 273.458C102.632 273.458 102.746 273.436 102.851 273.392L104.775 272.341C104.97 272.341 104.998 272.085 104.775 272.008L102.739 270.931C102.641 270.882 102.531 270.856 102.419 270.856C102.307 270.856 102.197 270.882 102.098 270.931L100.147 271.956C99.8681 272.059 99.8402 272.213 100.147 272.29Z" fill="#3A2C6D"/>
<path d="M97.1361 270.777L99.1712 271.854C99.2714 271.897 99.3809 271.92 99.4917 271.92C99.6026 271.92 99.7121 271.897 99.8123 271.854L101.764 270.828C101.959 270.828 101.987 270.572 101.764 270.47L99.7287 269.393C99.6236 269.349 99.5096 269.326 99.3942 269.326C99.2788 269.326 99.1647 269.349 99.0596 269.393L97.1361 270.418C96.9967 270.521 96.9688 270.675 97.1361 270.777Z" fill="#3A2C6D"/>
<path d="M94.2647 269.239L96.2998 270.316C96.3981 270.365 96.5084 270.391 96.6204 270.391C96.7324 270.391 96.8426 270.365 96.941 270.316L98.8924 269.29C99.0875 269.29 99.0875 269.034 98.8924 268.957L96.8573 267.88C96.759 267.831 96.6488 267.805 96.5368 267.805C96.4247 267.805 96.3145 267.831 96.2162 267.88L94.2647 268.906C94.0975 269.008 94.0975 269.162 94.2647 269.239Z" fill="#3A2C6D"/>
<path d="M91.3655 267.65L93.4005 268.726C93.5056 268.77 93.6196 268.793 93.735 268.793C93.8505 268.793 93.9645 268.77 94.0696 268.726L95.9931 267.701C96.1883 267.701 96.2161 267.445 95.9931 267.342L93.9581 266.265C93.8597 266.216 93.7495 266.19 93.6375 266.19C93.5254 266.19 93.4152 266.216 93.3169 266.265L91.3655 267.291C91.2261 267.47 91.1982 267.65 91.3655 267.65Z" fill="#3A2C6D"/>
<path d="M88.4941 266.189L90.5291 267.265C90.6275 267.315 90.7377 267.34 90.8497 267.34C90.9617 267.34 91.072 267.315 91.1703 267.265L93.1217 266.24C93.3169 266.24 93.3448 265.984 93.1217 265.881L91.0867 264.804C90.9816 264.76 90.8676 264.738 90.7521 264.738C90.6367 264.738 90.5227 264.76 90.4176 264.804L88.4941 265.855C88.3547 265.932 88.3268 266.086 88.4941 266.189Z" fill="#3A2C6D"/>
<path d="M85.6227 264.65L87.6578 265.727C87.7575 265.772 87.8672 265.796 87.9784 265.796C88.0895 265.796 88.1992 265.772 88.299 265.727L90.2504 264.676C90.4455 264.676 90.4455 264.42 90.2504 264.343L88.1874 263.266C88.0891 263.217 87.9789 263.191 87.8669 263.191C87.7548 263.191 87.6446 263.217 87.5463 263.266L85.5948 264.292C85.4833 264.42 85.4555 264.574 85.6227 264.65Z" fill="#3A2C6D"/>
<path d="M82.7513 263.138L84.7864 264.215C84.8866 264.258 84.9961 264.281 85.107 264.281C85.2178 264.281 85.3273 264.258 85.4275 264.215L87.379 263.189C87.5462 263.189 87.5741 262.933 87.379 262.83L85.3439 261.754C85.2436 261.71 85.1342 261.688 85.0233 261.688C84.9125 261.688 84.803 261.71 84.7027 261.754L82.7513 262.779C82.584 262.882 82.584 263.036 82.7513 263.138Z" fill="#3A2C6D"/>
<path d="M79.852 261.6L81.8871 262.677C81.9904 262.726 82.1052 262.752 82.2216 262.752C82.3381 262.752 82.4529 262.726 82.5562 262.677L84.4797 261.651C84.6749 261.651 84.7027 261.395 84.4797 261.318L82.4447 260.216C82.3444 260.172 82.2349 260.15 82.1241 260.15C82.0132 260.15 81.9038 260.172 81.8035 260.216L79.852 261.267C79.7127 261.369 79.6848 261.523 79.852 261.6Z" fill="#3A2C6D"/>
<path d="M73.4123 258.191L78.9878 261.164C79.0881 261.208 79.1976 261.23 79.3084 261.23C79.4192 261.23 79.5287 261.208 79.629 261.164L81.5804 260.113C81.7756 260.113 81.8034 259.857 81.5804 259.78L76.0049 256.806C75.9016 256.757 75.7868 256.731 75.6704 256.731C75.5539 256.731 75.4392 256.757 75.3359 256.806L73.4123 257.832C73.2729 257.934 73.245 258.088 73.4123 258.191Z" fill="#3A2C6D"/>
<path d="M111.521 278.416L114.309 279.903C114.409 279.946 114.518 279.969 114.629 279.969C114.74 279.969 114.85 279.946 114.95 279.903L116.901 278.852C117.096 278.852 117.124 278.596 116.901 278.519L114.114 277.032C114.013 276.989 113.904 276.966 113.793 276.966C113.682 276.966 113.573 276.989 113.472 277.032L111.521 278.083C111.298 278.185 111.298 278.339 111.521 278.416Z" fill="#3A2C6D"/>
<path d="M132.652 273.161L86.431 248.604V215.279L86.7934 214.51L87.1558 214.356C87.6413 214.092 88.1948 213.953 88.7588 213.953C89.3227 213.953 89.8763 214.092 90.3617 214.356L132.652 236.786C133.135 237.051 133.535 237.427 133.813 237.876C134.091 238.325 134.239 238.833 134.241 239.349V270.726C133.934 272.238 133.6 272.623 132.652 273.161Z" fill="#E5E5E5"/>
<path d="M128.415 240.759L86.431 216.381V215.279L86.7934 214.51L87.1558 214.356C87.6413 214.092 88.1948 213.953 88.7588 213.953C89.3227 213.953 89.8763 214.092 90.3617 214.356L132.652 236.786C133.172 237.058 133.59 237.47 133.851 237.965L128.415 240.759Z" fill="#E5E5E5"/>
<path d="M87.4905 214.433L131.872 237.991C132.105 238.118 132.299 238.297 132.436 238.513C132.573 238.728 132.647 238.972 132.652 239.221V273.161L86.4312 248.603V214.997C86.4279 214.882 86.4584 214.768 86.5196 214.667C86.5807 214.567 86.6702 214.483 86.7787 214.426C86.8871 214.368 87.0104 214.338 87.1357 214.339C87.2609 214.341 87.3835 214.373 87.4905 214.433V214.433Z" fill="#DCEEFF"/>
<path d="M87.4905 214.433L131.872 237.991C132.105 238.118 132.299 238.297 132.436 238.513C132.573 238.728 132.647 238.972 132.652 239.221V273.161L86.4312 248.603V214.997C86.4279 214.882 86.4584 214.768 86.5196 214.667C86.5807 214.567 86.6702 214.483 86.7787 214.426C86.8871 214.368 87.0104 214.338 87.1357 214.339C87.2609 214.341 87.3835 214.373 87.4905 214.433V214.433Z" fill="#F4F4F4"/>
<path d="M132.652 273.161V271.931L86.4312 247.399V248.604L132.652 273.161Z" fill="#DBDBDB"/>
<path d="M87.6298 246.835V216.202L88.1874 216.484V246.578L87.6298 246.835Z" fill="#1E3779"/>
<path d="M88.1874 216.484V246.578L131.175 269.316V239.298L88.1874 216.484Z" fill="#3A2C6D"/>
<path d="M87.6298 246.835L131.175 269.931V269.316L88.1874 246.578L87.6298 246.835Z" fill="#031F60"/>
<path d="M37.8685 209.127C36.7534 211.69 39.569 214.715 47.0123 216.817C54.4556 218.919 55.1247 216.202 55.1247 216.202C60.0892 218.247 64.9285 220.541 69.621 223.072C74.0814 225.943 76.0607 234.274 76.674 248.322C77.3709 264.574 77.4267 288.67 76.8413 292.848C76.8413 292.848 68.478 300.539 57.8009 299.693C47.1238 298.847 29.087 290.182 24.7381 283.466C24.7381 269.213 26.6617 266.881 24.1527 258.678C18.4099 239.888 15.3713 232.198 18.1869 219.688C20.4729 209.434 23.7624 208.127 28.1392 208.23C31.3972 208.372 34.6447 208.671 37.8685 209.127V209.127Z" fill="#F4F4F4"/>
<path d="M94.2647 265.778C85.4833 267.829 83.4204 262.728 82.2774 258.524C79.4896 248.27 77.9842 239.093 75.8934 233.3C73.4402 226.481 70.8755 225.379 67.2514 224.046C63.0419 222.482 59.3899 225.789 60.7838 234.479C62.5223 244.571 65.2182 254.504 68.8404 264.164C70.1227 268.512 72.5994 272.484 76.0328 275.699C80.5769 279.083 87.4069 278.929 97.7216 276.571C103.771 274.676 109.644 272.336 115.284 269.572C117.515 268.624 119.243 267.983 123.648 266.137C128.011 264.384 131.84 261.673 134.799 258.242C137.029 255.243 137.336 253.833 136.889 253.115C136.443 252.397 135.273 252.449 134.102 253.705C132.371 255.826 130.237 257.642 127.801 259.062C127.801 259.062 130.589 256.499 132.067 254.73C133.421 253.168 134.537 251.443 135.384 249.603C136.193 247.86 134.548 245.502 133.293 246.732C132.039 247.963 131.481 249.296 129.195 251.859C128.001 253.195 126.635 254.391 125.125 255.422C126.54 253.673 127.798 251.821 128.889 249.885C129.867 248.331 130.341 246.552 130.255 244.758C130.255 243.861 128.777 242.785 127.467 244.502C126.109 246.95 124.423 249.232 122.449 251.295C120.442 253.218 118.741 254.32 118.685 253.859C118.63 253.397 119.912 252.269 120.609 250.065C121.306 247.86 120.609 245.476 119.271 245.22C117.933 244.963 118.184 245.015 117.124 247.117C115.636 249.255 114.304 251.481 113.138 253.782C112.45 255.928 111.207 257.89 109.514 259.498C107.395 261.523 102.628 263.856 94.2647 265.778Z" fill="#FFCEA9"/>
<path d="M63.9061 222.662C69.7604 221.867 73.9141 224.302 76.5067 232.454C79.0994 240.606 80.8835 247.322 80.8835 247.322C78.5695 250.404 75.0567 252.551 71.0706 253.32C64.0734 254.884 61.5365 251.808 61.5365 251.808C61.5365 251.808 59.5851 243.246 58.3863 237.427C57.1876 231.608 56.7695 223.636 63.9061 222.662Z" fill="#EDEDED"/>
<path d="M66.9168 180.852C66.9168 180.852 76.1722 167.907 56.1004 165.266C41.6319 163.37 32.3208 171.906 31.2615 181.185C30.23 190.055 36.1679 199.257 40.4332 202.923C44.6475 203.91 49.1104 203.416 52.9502 201.539C53.1895 199.119 53.2825 196.688 53.229 194.259C53.229 194.259 46.1759 180.621 66.9168 180.852Z" fill="#3A2C6D"/>
<path opacity="0.4" d="M195.994 300L145.764 273.712C142.137 271.816 142.596 268.504 146.779 266.312L179.324 249.28L242.676 282.464L210.139 299.496C205.948 301.688 199.621 301.92 195.994 300Z" fill="#D6D8E5"/>
<path d="M199.665 298.072L149.426 271.776C145.808 269.88 146.267 266.576 150.441 264.384L182.986 247.352L246.338 280.504L213.793 297.544C209.61 299.728 203.283 300 199.665 298.072Z" fill="#B1B4C4"/>
<path d="M246.338 280.504V278.768L243.417 280.296L246.338 280.504Z" fill="#B1B4C4"/>
<path d="M146.982 268.648V266.88L149.991 268.008L146.982 268.648Z" fill="#B1B4C4"/>
<path d="M199.665 296.336L149.426 270.04C145.808 268.144 146.267 264.832 150.441 262.648L182.986 245.6L246.338 278.76L213.793 295.792C209.61 297.992 203.283 298.224 199.665 296.336Z" fill="#D6D8E5"/>
<path d="M183.163 245.688L175.318 222.104L239.358 255.408L246.338 278.768L183.163 245.688Z" fill="#9EA1AF"/>
<path d="M244.485 279.736L246.338 278.768L243.558 276.8L244.485 279.736Z" fill="#9EA1AF"/>
<path d="M181.142 246.576L173.297 222.992L237.337 256.296L244.485 279.736L181.142 246.576Z" fill="#B1B4C4"/>
<path d="M343.708 319.48L95.8172 189.736C92.3403 187.912 89.5252 183.032 89.5252 178.832V5.00033C89.5252 0.800335 92.3403 -1.13567 95.8172 0.688335L343.708 130.4C347.185 132.216 350 137.096 350 141.304V315.2C350 319.368 347.185 321.304 343.708 319.48Z" fill="#C4C7D6"/>
<path d="M344.979 321.272L347.732 319.84L346.541 312.456L344.979 321.272Z" fill="#C4C7D6"/>
<path d="M89.0752 1.75201L91.7755 0.344009L95.6583 2.35201C95.6583 2.35201 91.5196 2.92001 91.4225 2.89601C91.3255 2.87201 89.0752 1.75201 89.0752 1.75201Z" fill="#B1B4C4"/>
<path d="M341.431 320.672L93.5404 190.928C90.0635 189.104 87.2397 184.224 87.2397 180.024V6.19201C87.2397 1.98401 90.0635 0.0560131 93.5404 1.87201L341.422 131.616C344.899 133.44 347.723 138.32 347.723 142.528V316.352C347.732 320.56 344.908 322.488 341.431 320.672Z" fill="#E4E7F2"/>
<path d="M340.999 320.896L93.108 191.152C89.6311 189.328 86.8161 184.448 86.8161 180.248V6.40001C86.8161 2.20001 89.6311 0.264008 93.108 2.08801L340.999 131.848C344.476 133.664 347.291 138.544 347.291 142.752V316.584C347.291 320.8 344.476 322.72 340.999 320.896Z" fill="#201D38"/>
<path opacity="0.3" d="M343.885 310.328L89.9576 177.424L90.09 7.11201C90.09 5.36801 91.4402 4.66401 93.108 5.51201L340.999 135.28C341.878 135.798 342.609 136.498 343.133 137.321C343.658 138.143 343.96 139.067 344.017 140.016L343.885 310.328Z" fill="url(#paint0_linear)"/>
<path d="M244.105 113.664L227.277 104.856V99.352L244.105 108.16V113.664Z" fill="#A298E2"/>
<path d="M283.004 134.04L247.256 115.312V109.808L283.004 128.536V134.04Z" fill="#F4CE2C"/>
<path d="M244.105 131.272L227.277 122.472V116.968L244.105 125.768V131.272Z" fill="#A298E2"/>
<path d="M259.098 139.256L247.256 132.928V127.424L259.098 133.752V139.256Z" fill="#4D3BFF"/>
<path d="M244.105 140.08L227.277 131.272V125.768L244.105 134.576V140.08Z" fill="#A298E2"/>
<path d="M267.234 152.184L247.256 141.728V136.224L267.234 146.68V152.184Z" fill="#4D3BFF"/>
<path d="M244.105 148.88L227.277 140.08V134.576L244.105 143.384V148.88Z" fill="#A298E2"/>
<path d="M299.947 178.048L247.256 150.536V145.032L299.947 172.552V178.048Z" fill="#FF8657"/>
<path d="M244.105 122.472L227.277 113.664V108.16L244.105 116.968V122.472Z" fill="#A298E2"/>
<path d="M312.893 158.512L247.256 124.12V118.616L312.893 153.008V158.512Z" fill="#A298E2"/>
<path d="M244.105 157.688L227.277 148.88V143.376L244.105 152.184V157.688Z" fill="#A298E2"/>
<path d="M304.033 189.608L247.256 159.344V153.84L304.033 184.104V189.608Z" fill="#C33AFC"/>
<path d="M244.105 175.304L227.277 166.496V160.992L244.105 169.8V175.304Z" fill="#A298E2"/>
<path d="M313.502 211.624L247.256 176.952V171.448L313.502 206.12V211.624Z" fill="#A298E2"/>
<path d="M244.105 184.104L227.277 175.304V169.8L244.105 178.6V184.104Z" fill="#A298E2"/>
<path d="M267.234 196.216L247.256 185.752V180.256L267.234 190.712V196.216Z" fill="#C33AFC"/>
<path d="M244.105 192.912L227.277 184.104V178.6L244.105 187.408V192.912Z" fill="#A298E2"/>
<path d="M288.078 216.024L247.256 194.56V189.056L288.078 210.52V216.024Z" fill="#4D3BFF"/>
<path d="M244.105 166.496L227.277 157.688V152.184L244.105 160.992V166.496Z" fill="#A298E2"/>
<path d="M254.615 172L247.256 168.144V162.64L254.615 166.496V172Z" fill="#4D3BFF"/>
<path d="M244.105 201.72L227.277 192.912V187.408L244.105 196.216V201.72Z" fill="#A298E2"/>
<path d="M273.606 217.128L247.256 203.368V197.864L273.606 211.624V217.128Z" fill="#C33AFC"/>
<path d="M244.105 219.328L227.277 210.52V205.016L244.105 213.824V219.328Z" fill="#A298E2"/>
<path d="M285.704 240.848L247.256 220.976V215.472L285.704 235.344V240.848Z" fill="#FF8657"/>
<path d="M244.105 228.136L227.277 219.328V213.824L244.105 222.632V228.136Z" fill="#A298E2"/>
<path d="M252.056 232.536L247.256 229.784V224.28L252.056 227.032V232.536Z" fill="#A298E2"/>
<path d="M244.105 236.936L227.277 228.136V222.632L244.105 231.432V236.936Z" fill="#A298E2"/>
<path d="M269.308 250.104L247.256 238.592V233.088L269.308 244.6V250.104Z" fill="#F4CE2C"/>
<path d="M244.105 210.52L227.277 201.72V196.208L244.105 205.016V210.52Z" fill="#A298E2"/>
<path d="M277.939 228.136L247.256 212.168V206.672L277.939 222.632V228.136Z" fill="#4D3BFF"/>
<path d="M135.263 58.632L118.435 49.824V44.32L135.263 53.128V58.632Z" fill="#A298E2"/>
<path d="M209.919 97.704L138.413 60.28V54.776L209.919 92.2V97.704Z" fill="#C33AFC"/>
<path d="M135.263 76.24L118.435 67.432V61.928L135.263 70.736V76.24Z" fill="#A298E2"/>
<path d="M185.731 102.656L138.413 77.888V72.384L185.731 97.152V102.656Z" fill="#F4CE2C"/>
<path d="M135.263 85.048L118.435 76.24V70.736L135.263 79.544V85.048Z" fill="#A298E2"/>
<path d="M197.3 117.512L138.413 86.696V81.192L197.3 112.008V117.512Z" fill="#FF8657"/>
<path d="M135.263 93.848L118.435 85.048V79.544L135.263 88.344V93.848Z" fill="#A298E2"/>
<path d="M179.421 116.968L138.413 95.504V90L179.421 111.464V116.968Z" fill="#A298E2"/>
<path d="M135.263 67.432L118.435 58.624V53.128L135.263 61.928V67.432Z" fill="#A298E2"/>
<path d="M174.162 87.8L138.413 69.088V63.584L174.162 82.296V87.8Z" fill="#4D3BFF"/>
<path d="M135.263 102.656L118.435 93.848V88.344L135.263 97.152V102.656Z" fill="#A298E2"/>
<path d="M159.442 115.312L138.413 104.304V98.8L159.442 109.808V115.312Z" fill="#C33AFC"/>
<path d="M135.263 120.264L118.435 111.456V105.96L135.263 114.76V120.264Z" fill="#A298E2"/>
<path d="M204.659 156.592L138.413 121.92V116.416L204.659 151.088V156.592Z" fill="#F4CE2C"/>
<path d="M135.263 129.072L118.435 120.264V114.76L135.263 123.568V129.072Z" fill="#A298E2"/>
<path d="M158.392 141.176L138.413 130.72V125.216L158.392 135.672V141.176Z" fill="#FF8657"/>
<path d="M135.263 137.88L118.435 129.072V123.568L135.263 132.376V137.88Z" fill="#A298E2"/>
<path d="M197.3 170.344L138.413 139.528V134.024L197.3 164.848V170.344Z" fill="#A298E2"/>
<path d="M135.263 111.464L118.435 102.656V97.152L135.263 105.96V111.464Z" fill="#A298E2"/>
<path d="M194.14 142.28L138.413 113.112V107.608L194.14 136.776V142.28Z" fill="#4D3BFF"/>
<path d="M135.263 146.68L118.435 137.872V132.376L135.263 141.176V146.68Z" fill="#A298E2"/>
<path d="M145.773 152.184L138.413 148.336V142.832L145.773 146.68V152.184Z" fill="#C33AFC"/>
<path d="M135.263 164.296L118.435 155.488V149.984L135.263 158.792V164.296Z" fill="#A298E2"/>
<path d="M152.083 173.096L138.413 165.944V160.44L152.083 167.592V173.096Z" fill="#F4CE2C"/>
<path d="M135.263 173.096L118.435 164.296V158.792L135.263 167.592V173.096Z" fill="#A298E2"/>
<path d="M174.162 193.464L138.413 174.752V169.248L174.162 187.96V193.464Z" fill="#FF8657"/>
<path d="M135.263 181.904L118.435 173.096V167.592L135.263 176.4V181.904Z" fill="#A298E2"/>
<path d="M195.191 213.272L138.413 183.552V178.048L195.191 207.768V213.272Z" fill="#A298E2"/>
<path d="M135.263 155.488L118.435 146.68V141.176L135.263 149.984V155.488Z" fill="#A298E2"/>
<path d="M209.919 194.56L138.413 157.136V151.632L209.919 189.056V194.56Z" fill="#4D3BFF"/>
<path opacity="0.4" d="M185 347C194.941 347 203 342.971 203 338C203 333.029 194.941 329 185 329C175.059 329 167 333.029 167 338C167 342.971 175.059 347 185 347Z" fill="#D6D8E5"/>
<path d="M205 336.693V312L169.065 312.805L169.142 335.578C168.471 338.319 170.175 341.182 174.267 343.287C181.298 346.902 192.697 346.906 199.729 343.287C203.261 341.458 205.017 339.074 205 336.693Z" fill="#A6CE28"/>
<path d="M187 321C196.941 321 205 316.971 205 312C205 307.029 196.941 303 187 303C177.059 303 169 307.029 169 312C169 316.971 177.059 321 187 321Z" fill="#BCD64D"/>
<path d="M202 312.502C202 313.959 200.608 315.49 198.189 316.709C195.549 318.029 191.942 318.844 188.143 318.978C187.764 318.978 187.385 319 187.002 319C182.786 319 178.711 318.162 175.811 316.709C173.392 315.49 172 313.959 172 312.502C172 311.045 173.392 309.514 175.811 308.295C178.711 306.838 182.786 306 186.998 306C187.381 306 187.764 306 188.143 306.022C191.942 306.156 195.549 306.971 198.189 308.295C200.608 309.503 202 311.019 202 312.502Z" fill="#28221C"/>
<path opacity="0.07" d="M202 312.502C202 313.964 200.593 315.5 198.15 316.724C195.483 318.048 191.839 318.866 188.002 319C184.165 318.866 180.517 318.048 177.854 316.724C175.407 315.478 174 313.953 174 312.502C174 311.051 175.402 309.504 177.846 308.28C180.513 306.952 184.161 306.134 187.998 306C191.835 306.134 195.479 306.952 198.146 308.28C200.593 309.493 202 311.014 202 312.502Z" fill="white"/>
<path d="M202.514 323.934L198.805 322L197 322.941L198.805 323.881V324.498L202.284 326.304L202.18 326.883C202.685 327.259 204.485 330.269 204.485 330.269L204.611 330.164V337.963C204.611 340.009 203.278 339.317 202.71 339.02L198.805 336.988L197 337.925L198.805 338.862V339.479L202.71 341.51C203.105 341.723 203.525 341.895 203.963 342.022L203.729 343L205.751 341.973H205.78H205.809C206.645 341.529 207 340.449 207 339.238V331.055C207.017 327.598 204.072 324.886 202.514 323.934Z" fill="#8DA01F"/>
<path d="M200.812 342.325L197 340.21V337.601L200.812 339.716C201.367 340.022 202.668 340.746 202.668 338.612V330.131C202.668 328.126 200.78 326.739 200.458 326.52L197 324.601V322L200.621 324.013C202.146 325.004 205 327.832 205 331.432V339.92C205 342.211 203.911 344.04 200.812 342.325Z" fill="#99B524"/>
<defs>
<linearGradient id="paint0_linear" x1="89.9576" y1="157.744" x2="344.017" y2="157.744" gradientUnits="userSpaceOnUse">
<stop offset="0.21" stop-color="white" stop-opacity="0"/>
<stop offset="1" stop-color="white" stop-opacity="0.2"/>
</linearGradient>
</defs>
</svg>
